<?xml version="1.0" encoding="UTF-8" standalone="no"?>
<!DOCTYPE svg PUBLIC "-//W3C//DTD SVG 1.1//EN"
 "http://www.w3.org/Graphics/SVG/1.1/DTD/svg11.dtd">
<!-- Generated by graphviz version 2.43.0 (0)
 -->
<!-- Title: AST Pages: 1 -->
<svg width="697pt" height="488pt"
 viewBox="0.00 0.00 697.00 488.00" xmlns="http://www.w3.org/2000/svg" xmlns:xlink="http://www.w3.org/1999/xlink">
<g id="graph0" class="graph" transform="scale(1 1) rotate(0) translate(4 484)">
<title>AST</title>
<polygon fill="white" stroke="transparent" points="-4,4 -4,-484 693,-484 693,4 -4,4"/>
<!-- node1 -->
<g id="node1" class="node">
<title>node1</title>
<polygon fill="lightblue" stroke="black" points="2,-0.5 2,-92.5 169,-92.5 169,-0.5 2,-0.5"/>
<text text-anchor="middle" x="85.5" y="-77.3" font-family="Times,serif" font-size="14.00">0x504000000050</text>
<polyline fill="none" stroke="black" points="2,-69.5 169,-69.5 "/>
<text text-anchor="middle" x="85.5" y="-54.3" font-family="Times,serif" font-size="14.00">type = VARIABLE</text>
<polyline fill="none" stroke="black" points="2,-46.5 169,-46.5 "/>
<text text-anchor="middle" x="85.5" y="-31.3" font-family="Times,serif" font-size="14.00">data = x</text>
<polyline fill="none" stroke="black" points="2,-23.5 169,-23.5 "/>
<text text-anchor="middle" x="41" y="-8.3" font-family="Times,serif" font-size="14.00">left: (nil)</text>
<polyline fill="none" stroke="black" points="80,-0.5 80,-23.5 "/>
<text text-anchor="middle" x="124.5" y="-8.3" font-family="Times,serif" font-size="14.00">right: (nil)</text>
</g>
<!-- node2 -->
<g id="node2" class="node">
<title>node2</title>
<polygon fill="lightblue" stroke="black" points="187,-0.5 187,-92.5 354,-92.5 354,-0.5 187,-0.5"/>
<text text-anchor="middle" x="270.5" y="-77.3" font-family="Times,serif" font-size="14.00">0x504000000090</text>
<polyline fill="none" stroke="black" points="187,-69.5 354,-69.5 "/>
<text text-anchor="middle" x="270.5" y="-54.3" font-family="Times,serif" font-size="14.00">type = VARIABLE</text>
<polyline fill="none" stroke="black" points="187,-46.5 354,-46.5 "/>
<text text-anchor="middle" x="270.5" y="-31.3" font-family="Times,serif" font-size="14.00">data = y</text>
<polyline fill="none" stroke="black" points="187,-23.5 354,-23.5 "/>
<text text-anchor="middle" x="226" y="-8.3" font-family="Times,serif" font-size="14.00">left: (nil)</text>
<polyline fill="none" stroke="black" points="265,-0.5 265,-23.5 "/>
<text text-anchor="middle" x="309.5" y="-8.3" font-family="Times,serif" font-size="14.00">right: (nil)</text>
</g>
<!-- node3 -->
<g id="node3" class="node">
<title>node3</title>
<polygon fill="lightblue" stroke="black" points="0,-129.5 0,-221.5 361,-221.5 361,-129.5 0,-129.5"/>
<text text-anchor="middle" x="180.5" y="-206.3" font-family="Times,serif" font-size="14.00">0x5040000000d0</text>
<polyline fill="none" stroke="black" points="0,-198.5 361,-198.5 "/>
<text text-anchor="middle" x="180.5" y="-183.3" font-family="Times,serif" font-size="14.00">type = OPERATION</text>
<polyline fill="none" stroke="black" points="0,-175.5 361,-175.5 "/>
<text text-anchor="middle" x="180.5" y="-160.3" font-family="Times,serif" font-size="14.00">data = =</text>
<polyline fill="none" stroke="black" points="0,-152.5 361,-152.5 "/>
<text text-anchor="middle" x="87.5" y="-137.3" font-family="Times,serif" font-size="14.00">left: 0x504000000050</text>
<polyline fill="none" stroke="black" points="175,-129.5 175,-152.5 "/>
<text text-anchor="middle" x="268" y="-137.3" font-family="Times,serif" font-size="14.00">right: 0x504000000090</text>
</g>
<!-- node3&#45;&gt;node1 -->
<g id="edge1" class="edge">
<title>node3:f3&#45;&gt;node1</title>
<path fill="none" stroke="red" d="M87.45,-118.9C87.41,-113.59 87.33,-108.19 87.22,-102.87"/>
<polygon fill="red" stroke="red" points="83.95,-119.02 87.5,-129 90.95,-118.98 83.95,-119.02"/>
<polygon fill="red" stroke="red" points="90.72,-102.68 87.01,-92.76 83.72,-102.83 90.72,-102.68"/>
</g>
<!-- node3&#45;&gt;node2 -->
<g id="edge2" class="edge">
<title>node3:f4&#45;&gt;node2</title>
<path fill="none" stroke="green" d="M268.55,-118.9C268.59,-113.59 268.67,-108.19 268.78,-102.87"/>
<polygon fill="green" stroke="green" points="265.05,-118.98 268.5,-129 272.05,-119.02 265.05,-118.98"/>
<polygon fill="green" stroke="green" points="272.28,-102.83 268.99,-92.76 265.28,-102.68 272.28,-102.83"/>
</g>
<!-- node4 -->
<g id="node4" class="node">
<title>node4</title>
<polygon fill="lightblue" stroke="black" points="379,-129.5 379,-221.5 546,-221.5 546,-129.5 379,-129.5"/>
<text text-anchor="middle" x="462.5" y="-206.3" font-family="Times,serif" font-size="14.00">0x504000000110</text>
<polyline fill="none" stroke="black" points="379,-198.5 546,-198.5 "/>
<text text-anchor="middle" x="462.5" y="-183.3" font-family="Times,serif" font-size="14.00">type = VARIABLE</text>
<polyline fill="none" stroke="black" points="379,-175.5 546,-175.5 "/>
<text text-anchor="middle" x="462.5" y="-160.3" font-family="Times,serif" font-size="14.00">data = z</text>
<polyline fill="none" stroke="black" points="379,-152.5 546,-152.5 "/>
<text text-anchor="middle" x="418" y="-137.3" font-family="Times,serif" font-size="14.00">left: (nil)</text>
<polyline fill="none" stroke="black" points="457,-129.5 457,-152.5 "/>
<text text-anchor="middle" x="501.5" y="-137.3" font-family="Times,serif" font-size="14.00">right: (nil)</text>
</g>
<!-- node5 -->
<g id="node5" class="node">
<title>node5</title>
<polygon fill="lightblue" stroke="black" points="143,-258.5 143,-350.5 504,-350.5 504,-258.5 143,-258.5"/>
<text text-anchor="middle" x="323.5" y="-335.3" font-family="Times,serif" font-size="14.00">0x504000000150</text>
<polyline fill="none" stroke="black" points="143,-327.5 504,-327.5 "/>
<text text-anchor="middle" x="323.5" y="-312.3" font-family="Times,serif" font-size="14.00">type = OPERATION</text>
<polyline fill="none" stroke="black" points="143,-304.5 504,-304.5 "/>
<text text-anchor="middle" x="323.5" y="-289.3" font-family="Times,serif" font-size="14.00">data = =</text>
<polyline fill="none" stroke="black" points="143,-281.5 504,-281.5 "/>
<text text-anchor="middle" x="230.5" y="-266.3" font-family="Times,serif" font-size="14.00">left: 0x5040000000d0</text>
<polyline fill="none" stroke="black" points="318,-258.5 318,-281.5 "/>
<text text-anchor="middle" x="411" y="-266.3" font-family="Times,serif" font-size="14.00">right: 0x504000000110</text>
</g>
<!-- node5&#45;&gt;node3 -->
<g id="edge3" class="edge">
<title>node5:f3&#45;&gt;node3</title>
<path fill="none" stroke="red" d="M229.59,-247.9C228.55,-242 226.67,-236.22 224.23,-230.67"/>
<polygon fill="red" stroke="red" points="226.12,-248.35 230.5,-258 233.09,-247.73 226.12,-248.35"/>
<polygon fill="red" stroke="red" points="227.27,-228.93 219.65,-221.57 221.02,-232.07 227.27,-228.93"/>
</g>
<!-- node5&#45;&gt;node4 -->
<g id="edge4" class="edge">
<title>node5:f4&#45;&gt;node4</title>
<path fill="none" stroke="green" d="M412.4,-247.98C413.44,-242.13 415.31,-236.41 417.74,-230.92"/>
<polygon fill="green" stroke="green" points="408.91,-247.73 411.5,-258 415.88,-248.35 408.91,-247.73"/>
<polygon fill="green" stroke="green" points="420.91,-232.4 422.32,-221.9 414.67,-229.24 420.91,-232.4"/>
</g>
<!-- node6 -->
<g id="node6" class="node">
<title>node6</title>
<polygon fill="lightblue" stroke="black" points="522,-258.5 522,-350.5 689,-350.5 689,-258.5 522,-258.5"/>
<text text-anchor="middle" x="605.5" y="-335.3" font-family="Times,serif" font-size="14.00">0x504000000190</text>
<polyline fill="none" stroke="black" points="522,-327.5 689,-327.5 "/>
<text text-anchor="middle" x="605.5" y="-312.3" font-family="Times,serif" font-size="14.00">type = VARIABLE</text>
<polyline fill="none" stroke="black" points="522,-304.5 689,-304.5 "/>
<text text-anchor="middle" x="605.5" y="-289.3" font-family="Times,serif" font-size="14.00">data = a</text>
<polyline fill="none" stroke="black" points="522,-281.5 689,-281.5 "/>
<text text-anchor="middle" x="561" y="-266.3" font-family="Times,serif" font-size="14.00">left: (nil)</text>
<polyline fill="none" stroke="black" points="600,-258.5 600,-281.5 "/>
<text text-anchor="middle" x="644.5" y="-266.3" font-family="Times,serif" font-size="14.00">right: (nil)</text>
</g>
<!-- node7 -->
<g id="node7" class="node">
<title>node7</title>
<polygon fill="lightblue" stroke="black" points="286,-387.5 286,-479.5 647,-479.5 647,-387.5 286,-387.5"/>
<text text-anchor="middle" x="466.5" y="-464.3" font-family="Times,serif" font-size="14.00">0x5040000001d0</text>
<polyline fill="none" stroke="black" points="286,-456.5 647,-456.5 "/>
<text text-anchor="middle" x="466.5" y="-441.3" font-family="Times,serif" font-size="14.00">type = OPERATION</text>
<polyline fill="none" stroke="black" points="286,-433.5 647,-433.5 "/>
<text text-anchor="middle" x="466.5" y="-418.3" font-family="Times,serif" font-size="14.00">data = =</text>
<polyline fill="none" stroke="black" points="286,-410.5 647,-410.5 "/>
<text text-anchor="middle" x="373.5" y="-395.3" font-family="Times,serif" font-size="14.00">left: 0x504000000150</text>
<polyline fill="none" stroke="black" points="461,-387.5 461,-410.5 "/>
<text text-anchor="middle" x="554" y="-395.3" font-family="Times,serif" font-size="14.00">right: 0x504000000190</text>
</g>
<!-- node7&#45;&gt;node5 -->
<g id="edge5" class="edge">
<title>node7:f3&#45;&gt;node5</title>
<path fill="none" stroke="red" d="M372.59,-376.9C371.55,-371 369.67,-365.22 367.23,-359.67"/>
<polygon fill="red" stroke="red" points="369.12,-377.35 373.5,-387 376.09,-376.73 369.12,-377.35"/>
<polygon fill="red" stroke="red" points="370.27,-357.93 362.65,-350.57 364.02,-361.07 370.27,-357.93"/>
</g>
<!-- node7&#45;&gt;node6 -->
<g id="edge6" class="edge">
<title>node7:f4&#45;&gt;node6</title>
<path fill="none" stroke="green" d="M555.4,-376.98C556.44,-371.13 558.31,-365.41 560.74,-359.92"/>
<polygon fill="green" stroke="green" points="551.91,-376.73 554.5,-387 558.88,-377.35 551.91,-376.73"/>
<polygon fill="green" stroke="green" points="563.91,-361.4 565.32,-350.9 557.67,-358.24 563.91,-361.4"/>
</g>
</g>
</svg>
