<?xml version="1.0" encoding="UTF-8" standalone="no"?>
<!DOCTYPE svg PUBLIC "-//W3C//DTD SVG 1.1//EN"
 "http://www.w3.org/Graphics/SVG/1.1/DTD/svg11.dtd">
<!-- Generated by graphviz version 2.43.0 (0)
 -->
<!-- Title: AST Pages: 1 -->
<svg width="929pt" height="861pt"
 viewBox="0.00 0.00 929.00 861.00" xmlns="http://www.w3.org/2000/svg" xmlns:xlink="http://www.w3.org/1999/xlink">
<g id="graph0" class="graph" transform="scale(1 1) rotate(0) translate(4 857)">
<title>AST</title>
<polygon fill="white" stroke="transparent" points="-4,4 -4,-857 925,-857 925,4 -4,4"/>
<!-- node1 -->
<g id="node1" class="node">
<title>node1</title>
<polygon fill="lightblue" stroke="black" points="0,-304.5 0,-419.5 167,-419.5 167,-304.5 0,-304.5"/>
<text text-anchor="middle" x="83.5" y="-404.3" font-family="Times,serif" font-size="14.00">0x504000000090</text>
<polyline fill="none" stroke="black" points="0,-396.5 167,-396.5 "/>
<text text-anchor="middle" x="83.5" y="-381.3" font-family="Times,serif" font-size="14.00">type = CONST</text>
<polyline fill="none" stroke="black" points="0,-373.5 167,-373.5 "/>
<text text-anchor="middle" x="83.5" y="-358.3" font-family="Times,serif" font-size="14.00">int</text>
<polyline fill="none" stroke="black" points="0,-350.5 167,-350.5 "/>
<text text-anchor="middle" x="83.5" y="-335.3" font-family="Times,serif" font-size="14.00">data = 5</text>
<polyline fill="none" stroke="black" points="0,-327.5 167,-327.5 "/>
<text text-anchor="middle" x="39" y="-312.3" font-family="Times,serif" font-size="14.00">left: (nil)</text>
<polyline fill="none" stroke="black" points="78,-304.5 78,-327.5 "/>
<text text-anchor="middle" x="122.5" y="-312.3" font-family="Times,serif" font-size="14.00">right: (nil)</text>
</g>
<!-- node2 -->
<g id="node2" class="node">
<title>node2</title>
<polygon fill="lightblue" stroke="black" points="138,-152.5 138,-267.5 305,-267.5 305,-152.5 138,-152.5"/>
<text text-anchor="middle" x="221.5" y="-252.3" font-family="Times,serif" font-size="14.00">0x5040000000d0</text>
<polyline fill="none" stroke="black" points="138,-244.5 305,-244.5 "/>
<text text-anchor="middle" x="221.5" y="-229.3" font-family="Times,serif" font-size="14.00">type = CONST</text>
<polyline fill="none" stroke="black" points="138,-221.5 305,-221.5 "/>
<text text-anchor="middle" x="221.5" y="-206.3" font-family="Times,serif" font-size="14.00">int</text>
<polyline fill="none" stroke="black" points="138,-198.5 305,-198.5 "/>
<text text-anchor="middle" x="221.5" y="-183.3" font-family="Times,serif" font-size="14.00">data = 3</text>
<polyline fill="none" stroke="black" points="138,-175.5 305,-175.5 "/>
<text text-anchor="middle" x="177" y="-160.3" font-family="Times,serif" font-size="14.00">left: (nil)</text>
<polyline fill="none" stroke="black" points="216,-152.5 216,-175.5 "/>
<text text-anchor="middle" x="260.5" y="-160.3" font-family="Times,serif" font-size="14.00">right: (nil)</text>
</g>
<!-- node3 -->
<g id="node3" class="node">
<title>node3</title>
<polygon fill="lightblue" stroke="black" points="325,-0.5 325,-115.5 492,-115.5 492,-0.5 325,-0.5"/>
<text text-anchor="middle" x="408.5" y="-100.3" font-family="Times,serif" font-size="14.00">0x504000000110</text>
<polyline fill="none" stroke="black" points="325,-92.5 492,-92.5 "/>
<text text-anchor="middle" x="408.5" y="-77.3" font-family="Times,serif" font-size="14.00">type = CONST</text>
<polyline fill="none" stroke="black" points="325,-69.5 492,-69.5 "/>
<text text-anchor="middle" x="408.5" y="-54.3" font-family="Times,serif" font-size="14.00">int</text>
<polyline fill="none" stroke="black" points="325,-46.5 492,-46.5 "/>
<text text-anchor="middle" x="408.5" y="-31.3" font-family="Times,serif" font-size="14.00">data = 10</text>
<polyline fill="none" stroke="black" points="325,-23.5 492,-23.5 "/>
<text text-anchor="middle" x="364" y="-8.3" font-family="Times,serif" font-size="14.00">left: (nil)</text>
<polyline fill="none" stroke="black" points="403,-0.5 403,-23.5 "/>
<text text-anchor="middle" x="447.5" y="-8.3" font-family="Times,serif" font-size="14.00">right: (nil)</text>
</g>
<!-- node4 -->
<g id="node4" class="node">
<title>node4</title>
<polygon fill="lightblue" stroke="black" points="510,-0.5 510,-115.5 677,-115.5 677,-0.5 510,-0.5"/>
<text text-anchor="middle" x="593.5" y="-100.3" font-family="Times,serif" font-size="14.00">0x504000000150</text>
<polyline fill="none" stroke="black" points="510,-92.5 677,-92.5 "/>
<text text-anchor="middle" x="593.5" y="-77.3" font-family="Times,serif" font-size="14.00">type = CONST</text>
<polyline fill="none" stroke="black" points="510,-69.5 677,-69.5 "/>
<text text-anchor="middle" x="593.5" y="-54.3" font-family="Times,serif" font-size="14.00">int</text>
<polyline fill="none" stroke="black" points="510,-46.5 677,-46.5 "/>
<text text-anchor="middle" x="593.5" y="-31.3" font-family="Times,serif" font-size="14.00">data = 1</text>
<polyline fill="none" stroke="black" points="510,-23.5 677,-23.5 "/>
<text text-anchor="middle" x="549" y="-8.3" font-family="Times,serif" font-size="14.00">left: (nil)</text>
<polyline fill="none" stroke="black" points="588,-0.5 588,-23.5 "/>
<text text-anchor="middle" x="632.5" y="-8.3" font-family="Times,serif" font-size="14.00">right: (nil)</text>
</g>
<!-- node5 -->
<g id="node5" class="node">
<title>node5</title>
<polygon fill="lightblue" stroke="black" points="323,-164 323,-256 684,-256 684,-164 323,-164"/>
<text text-anchor="middle" x="503.5" y="-240.8" font-family="Times,serif" font-size="14.00">0x504000000190</text>
<polyline fill="none" stroke="black" points="323,-233 684,-233 "/>
<text text-anchor="middle" x="503.5" y="-217.8" font-family="Times,serif" font-size="14.00">type = OPERATION</text>
<polyline fill="none" stroke="black" points="323,-210 684,-210 "/>
<text text-anchor="middle" x="503.5" y="-194.8" font-family="Times,serif" font-size="14.00">data = &#45;</text>
<polyline fill="none" stroke="black" points="323,-187 684,-187 "/>
<text text-anchor="middle" x="410.5" y="-171.8" font-family="Times,serif" font-size="14.00">left: 0x504000000110</text>
<polyline fill="none" stroke="black" points="498,-164 498,-187 "/>
<text text-anchor="middle" x="591" y="-171.8" font-family="Times,serif" font-size="14.00">right: 0x504000000150</text>
</g>
<!-- node5&#45;&gt;node3 -->
<g id="edge1" class="edge">
<title>node5:f3&#45;&gt;node3</title>
<path fill="none" stroke="red" d="M410.47,-152.77C410.42,-143.91 410.31,-134.82 410.17,-125.95"/>
<polygon fill="red" stroke="red" points="406.97,-153.01 410.5,-163 413.97,-152.99 406.97,-153.01"/>
<polygon fill="red" stroke="red" points="413.66,-125.61 409.98,-115.67 406.66,-125.73 413.66,-125.61"/>
</g>
<!-- node5&#45;&gt;node4 -->
<g id="edge2" class="edge">
<title>node5:f4&#45;&gt;node4</title>
<path fill="none" stroke="green" d="M591.53,-152.77C591.58,-143.91 591.69,-134.82 591.83,-125.95"/>
<polygon fill="green" stroke="green" points="588.03,-152.99 591.5,-163 595.03,-153.01 588.03,-152.99"/>
<polygon fill="green" stroke="green" points="595.34,-125.73 592.02,-115.67 588.34,-125.61 595.34,-125.73"/>
</g>
<!-- node6 -->
<g id="node6" class="node">
<title>node6</title>
<polygon fill="lightblue" stroke="black" points="185,-316 185,-408 546,-408 546,-316 185,-316"/>
<text text-anchor="middle" x="365.5" y="-392.8" font-family="Times,serif" font-size="14.00">0x5040000001d0</text>
<polyline fill="none" stroke="black" points="185,-385 546,-385 "/>
<text text-anchor="middle" x="365.5" y="-369.8" font-family="Times,serif" font-size="14.00">type = OPERATION</text>
<polyline fill="none" stroke="black" points="185,-362 546,-362 "/>
<text text-anchor="middle" x="365.5" y="-346.8" font-family="Times,serif" font-size="14.00">data = *</text>
<polyline fill="none" stroke="black" points="185,-339 546,-339 "/>
<text text-anchor="middle" x="272.5" y="-323.8" font-family="Times,serif" font-size="14.00">left: 0x5040000000d0</text>
<polyline fill="none" stroke="black" points="360,-316 360,-339 "/>
<text text-anchor="middle" x="453" y="-323.8" font-family="Times,serif" font-size="14.00">right: 0x504000000190</text>
</g>
<!-- node6&#45;&gt;node2 -->
<g id="edge3" class="edge">
<title>node6:f3&#45;&gt;node2</title>
<path fill="none" stroke="red" d="M271.85,-304.69C270.67,-295.17 267.98,-285.74 264.41,-276.73"/>
<polygon fill="red" stroke="red" points="268.38,-305.24 272.5,-315 275.36,-304.8 268.38,-305.24"/>
<polygon fill="red" stroke="red" points="267.61,-275.3 260.41,-267.52 261.18,-278.08 267.61,-275.3"/>
</g>
<!-- node6&#45;&gt;node5 -->
<g id="edge4" class="edge">
<title>node6:f4&#45;&gt;node5</title>
<path fill="none" stroke="green" d="M454.12,-304.89C455.76,-291.22 460.48,-277.71 466.4,-265.37"/>
<polygon fill="green" stroke="green" points="450.62,-304.8 453.5,-315 457.6,-305.23 450.62,-304.8"/>
<polygon fill="green" stroke="green" points="469.66,-266.68 471.13,-256.18 463.44,-263.48 469.66,-266.68"/>
</g>
<!-- node7 -->
<g id="node7" class="node">
<title>node7</title>
<polygon fill="lightblue" stroke="black" points="97,-456.5 97,-548.5 458,-548.5 458,-456.5 97,-456.5"/>
<text text-anchor="middle" x="277.5" y="-533.3" font-family="Times,serif" font-size="14.00">0x504000000210</text>
<polyline fill="none" stroke="black" points="97,-525.5 458,-525.5 "/>
<text text-anchor="middle" x="277.5" y="-510.3" font-family="Times,serif" font-size="14.00">type = OPERATION</text>
<polyline fill="none" stroke="black" points="97,-502.5 458,-502.5 "/>
<text text-anchor="middle" x="277.5" y="-487.3" font-family="Times,serif" font-size="14.00">data = &gt;</text>
<polyline fill="none" stroke="black" points="97,-479.5 458,-479.5 "/>
<text text-anchor="middle" x="184.5" y="-464.3" font-family="Times,serif" font-size="14.00">left: 0x504000000090</text>
<polyline fill="none" stroke="black" points="272,-456.5 272,-479.5 "/>
<text text-anchor="middle" x="365" y="-464.3" font-family="Times,serif" font-size="14.00">right: 0x5040000001d0</text>
</g>
<!-- node7&#45;&gt;node1 -->
<g id="edge5" class="edge">
<title>node7:f3&#45;&gt;node1</title>
<path fill="none" stroke="red" d="M85.66,-465.54C74.55,-460.49 71.01,-446.23 71.08,-429.9"/>
<polygon fill="red" stroke="red" points="85.01,-468.98 95.5,-467.5 86.37,-462.12 85.01,-468.98"/>
<polygon fill="red" stroke="red" points="74.59,-429.68 71.56,-419.53 67.6,-429.36 74.59,-429.68"/>
</g>
<!-- node7&#45;&gt;node6 -->
<g id="edge6" class="edge">
<title>node7:f4&#45;&gt;node6</title>
<path fill="none" stroke="green" d="M365.5,-445.65C365.5,-436.68 365.5,-427.48 365.5,-418.62"/>
<polygon fill="green" stroke="green" points="362,-446 365.5,-456 369,-446 362,-446"/>
<polygon fill="green" stroke="green" points="369,-418.41 365.5,-408.41 362,-418.41 369,-418.41"/>
</g>
<!-- node8 -->
<g id="node8" class="node">
<title>node8</title>
<polygon fill="lightblue" stroke="black" points="564,-304.5 564,-419.5 731,-419.5 731,-304.5 564,-304.5"/>
<text text-anchor="middle" x="647.5" y="-404.3" font-family="Times,serif" font-size="14.00">0x504000000250</text>
<polyline fill="none" stroke="black" points="564,-396.5 731,-396.5 "/>
<text text-anchor="middle" x="647.5" y="-381.3" font-family="Times,serif" font-size="14.00">type = CONST</text>
<polyline fill="none" stroke="black" points="564,-373.5 731,-373.5 "/>
<text text-anchor="middle" x="647.5" y="-358.3" font-family="Times,serif" font-size="14.00">int</text>
<polyline fill="none" stroke="black" points="564,-350.5 731,-350.5 "/>
<text text-anchor="middle" x="647.5" y="-335.3" font-family="Times,serif" font-size="14.00">data = 3</text>
<polyline fill="none" stroke="black" points="564,-327.5 731,-327.5 "/>
<text text-anchor="middle" x="603" y="-312.3" font-family="Times,serif" font-size="14.00">left: (nil)</text>
<polyline fill="none" stroke="black" points="642,-304.5 642,-327.5 "/>
<text text-anchor="middle" x="686.5" y="-312.3" font-family="Times,serif" font-size="14.00">right: (nil)</text>
</g>
<!-- node9 -->
<g id="node9" class="node">
<title>node9</title>
<polygon fill="lightblue" stroke="black" points="749,-304.5 749,-419.5 916,-419.5 916,-304.5 749,-304.5"/>
<text text-anchor="middle" x="832.5" y="-404.3" font-family="Times,serif" font-size="14.00">0x504000000290</text>
<polyline fill="none" stroke="black" points="749,-396.5 916,-396.5 "/>
<text text-anchor="middle" x="832.5" y="-381.3" font-family="Times,serif" font-size="14.00">type = CONST</text>
<polyline fill="none" stroke="black" points="749,-373.5 916,-373.5 "/>
<text text-anchor="middle" x="832.5" y="-358.3" font-family="Times,serif" font-size="14.00">int</text>
<polyline fill="none" stroke="black" points="749,-350.5 916,-350.5 "/>
<text text-anchor="middle" x="832.5" y="-335.3" font-family="Times,serif" font-size="14.00">data = 2</text>
<polyline fill="none" stroke="black" points="749,-327.5 916,-327.5 "/>
<text text-anchor="middle" x="788" y="-312.3" font-family="Times,serif" font-size="14.00">left: (nil)</text>
<polyline fill="none" stroke="black" points="827,-304.5 827,-327.5 "/>
<text text-anchor="middle" x="871.5" y="-312.3" font-family="Times,serif" font-size="14.00">right: (nil)</text>
</g>
<!-- node10 -->
<g id="node10" class="node">
<title>node10</title>
<polygon fill="lightblue" stroke="black" points="560,-456.5 560,-548.5 921,-548.5 921,-456.5 560,-456.5"/>
<text text-anchor="middle" x="740.5" y="-533.3" font-family="Times,serif" font-size="14.00">0x5040000002d0</text>
<polyline fill="none" stroke="black" points="560,-525.5 921,-525.5 "/>
<text text-anchor="middle" x="740.5" y="-510.3" font-family="Times,serif" font-size="14.00">type = OPERATION</text>
<polyline fill="none" stroke="black" points="560,-502.5 921,-502.5 "/>
<text text-anchor="middle" x="740.5" y="-487.3" font-family="Times,serif" font-size="14.00">data = ==</text>
<polyline fill="none" stroke="black" points="560,-479.5 921,-479.5 "/>
<text text-anchor="middle" x="647.5" y="-464.3" font-family="Times,serif" font-size="14.00">left: 0x504000000250</text>
<polyline fill="none" stroke="black" points="735,-456.5 735,-479.5 "/>
<text text-anchor="middle" x="828" y="-464.3" font-family="Times,serif" font-size="14.00">right: 0x504000000290</text>
</g>
<!-- node10&#45;&gt;node8 -->
<g id="edge7" class="edge">
<title>node10:f3&#45;&gt;node8</title>
<path fill="none" stroke="red" d="M647.5,-445.89C647.5,-440.57 647.5,-435.17 647.5,-429.8"/>
<polygon fill="red" stroke="red" points="644,-446 647.5,-456 651,-446 644,-446"/>
<polygon fill="red" stroke="red" points="651,-429.56 647.5,-419.56 644,-429.56 651,-429.56"/>
</g>
<!-- node10&#45;&gt;node9 -->
<g id="edge8" class="edge">
<title>node10:f4&#45;&gt;node9</title>
<path fill="none" stroke="green" d="M828.57,-445.88C828.65,-440.56 828.77,-435.15 828.94,-429.78"/>
<polygon fill="green" stroke="green" points="825.07,-445.97 828.5,-456 832.07,-446.03 825.07,-445.97"/>
<polygon fill="green" stroke="green" points="832.44,-429.66 829.29,-419.54 825.45,-429.41 832.44,-429.66"/>
</g>
<!-- node11 -->
<g id="node11" class="node">
<title>node11</title>
<polygon fill="lightblue" stroke="black" points="331,-585.5 331,-723.5 692,-723.5 692,-585.5 331,-585.5"/>
<text text-anchor="middle" x="511.5" y="-708.3" font-family="Times,serif" font-size="14.00">0x504000000310</text>
<polyline fill="none" stroke="black" points="331,-700.5 692,-700.5 "/>
<text text-anchor="middle" x="511.5" y="-685.3" font-family="Times,serif" font-size="14.00">type = OPERATION</text>
<polyline fill="none" stroke="black" points="331,-677.5 692,-677.5 "/>
<text text-anchor="middle" x="511.5" y="-662.3" font-family="Times,serif" font-size="14.00">data =</text>
<polyline fill="none" stroke="black" points="331,-654.5 692,-654.5 "/>
<text text-anchor="middle" x="511.5" y="-639.3" font-family="Times,serif" font-size="14.00"> </text>
<polyline fill="none" stroke="black" points="331,-631.5 692,-631.5 "/>
<text text-anchor="middle" x="511.5" y="-616.3" font-family="Times,serif" font-size="14.00"> </text>
<polyline fill="none" stroke="black" points="331,-608.5 692,-608.5 "/>
<text text-anchor="middle" x="418.5" y="-593.3" font-family="Times,serif" font-size="14.00">left: 0x504000000210</text>
<polyline fill="none" stroke="black" points="506,-585.5 506,-608.5 "/>
<text text-anchor="middle" x="599" y="-593.3" font-family="Times,serif" font-size="14.00">right: 0x5040000002d0</text>
</g>
<!-- node11&#45;&gt;node7 -->
<g id="edge9" class="edge">
<title>node11:f3&#45;&gt;node7</title>
<path fill="none" stroke="red" d="M319.47,-594.98C304.55,-590.26 294.88,-575.15 288.63,-558.53"/>
<polygon fill="red" stroke="red" points="319.09,-598.47 329.5,-596.5 320.14,-591.54 319.09,-598.47"/>
<polygon fill="red" stroke="red" points="291.82,-557.02 285.33,-548.64 285.17,-559.23 291.82,-557.02"/>
</g>
<!-- node11&#45;&gt;node10 -->
<g id="edge10" class="edge">
<title>node11:f4&#45;&gt;node10</title>
<path fill="none" stroke="green" d="M698.9,-587.94C702.84,-580.67 708.45,-569.55 714.28,-557.75"/>
<polygon fill="green" stroke="green" points="695.88,-586.17 693.5,-596.5 701.8,-589.91 695.88,-586.17"/>
<polygon fill="green" stroke="green" points="717.48,-559.16 718.75,-548.64 711.2,-556.07 717.48,-559.16"/>
</g>
<!-- node12 -->
<g id="node12" class="node">
<title>node12</title>
<polygon fill="lightblue" stroke="black" points="710,-608.5 710,-700.5 877,-700.5 877,-608.5 710,-608.5"/>
<text text-anchor="middle" x="793.5" y="-685.3" font-family="Times,serif" font-size="14.00">0x504000000350</text>
<polyline fill="none" stroke="black" points="710,-677.5 877,-677.5 "/>
<text text-anchor="middle" x="793.5" y="-662.3" font-family="Times,serif" font-size="14.00">type = OPERATION</text>
<polyline fill="none" stroke="black" points="710,-654.5 877,-654.5 "/>
<text text-anchor="middle" x="793.5" y="-639.3" font-family="Times,serif" font-size="14.00">data = ;</text>
<polyline fill="none" stroke="black" points="710,-631.5 877,-631.5 "/>
<text text-anchor="middle" x="749" y="-616.3" font-family="Times,serif" font-size="14.00">left: (nil)</text>
<polyline fill="none" stroke="black" points="788,-608.5 788,-631.5 "/>
<text text-anchor="middle" x="832.5" y="-616.3" font-family="Times,serif" font-size="14.00">right: (nil)</text>
</g>
<!-- node13 -->
<g id="node13" class="node">
<title>node13</title>
<polygon fill="lightblue" stroke="black" points="474,-760.5 474,-852.5 835,-852.5 835,-760.5 474,-760.5"/>
<text text-anchor="middle" x="654.5" y="-837.3" font-family="Times,serif" font-size="14.00">0x504000000050</text>
<polyline fill="none" stroke="black" points="474,-829.5 835,-829.5 "/>
<text text-anchor="middle" x="654.5" y="-814.3" font-family="Times,serif" font-size="14.00">type = OPERATION</text>
<polyline fill="none" stroke="black" points="474,-806.5 835,-806.5 "/>
<text text-anchor="middle" x="654.5" y="-791.3" font-family="Times,serif" font-size="14.00">data = ;</text>
<polyline fill="none" stroke="black" points="474,-783.5 835,-783.5 "/>
<text text-anchor="middle" x="561.5" y="-768.3" font-family="Times,serif" font-size="14.00">left: 0x504000000310</text>
<polyline fill="none" stroke="black" points="649,-760.5 649,-783.5 "/>
<text text-anchor="middle" x="742" y="-768.3" font-family="Times,serif" font-size="14.00">right: 0x504000000350</text>
</g>
<!-- node13&#45;&gt;node11 -->
<g id="edge11" class="edge">
<title>node13:f3&#45;&gt;node11</title>
<path fill="none" stroke="red" d="M560.89,-749.93C560.23,-744.36 559.06,-738.82 557.51,-733.37"/>
<polygon fill="red" stroke="red" points="557.4,-750.23 561.5,-760 564.39,-749.81 557.4,-750.23"/>
<polygon fill="red" stroke="red" points="560.78,-732.09 554.34,-723.67 554.12,-734.27 560.78,-732.09"/>
</g>
<!-- node13&#45;&gt;node12 -->
<g id="edge12" class="edge">
<title>node13:f4&#45;&gt;node12</title>
<path fill="none" stroke="green" d="M743.14,-749.77C744.84,-735.8 749.78,-722.02 755.95,-709.48"/>
<polygon fill="green" stroke="green" points="739.63,-749.8 742.5,-760 746.61,-750.24 739.63,-749.8"/>
<polygon fill="green" stroke="green" points="759.07,-711.06 760.62,-700.58 752.87,-707.8 759.07,-711.06"/>
</g>
</g>
</svg>
