<?xml version="1.0" encoding="UTF-8" standalone="no"?>
<!DOCTYPE svg PUBLIC "-//W3C//DTD SVG 1.1//EN"
 "http://www.w3.org/Graphics/SVG/1.1/DTD/svg11.dtd">
<!-- Generated by graphviz version 2.43.0 (0)
 -->
<!-- Title: G Pages: 1 -->
<svg width="206pt" height="304pt"
 viewBox="0.00 0.00 206.00 304.00" xmlns="http://www.w3.org/2000/svg" xmlns:xlink="http://www.w3.org/1999/xlink">
<g id="graph0" class="graph" transform="scale(1 1) rotate(0) translate(4 300)">
<title>G</title>
<polygon fill="white" stroke="transparent" points="-4,4 -4,-300 202,-300 202,4 -4,4"/>
<!-- node1 -->
<g id="node1" class="node">
<title>node1</title>
<polygon fill="lightblue" stroke="black" points="0,-0.5 0,-46.5 54,-46.5 54,-0.5 0,-0.5"/>
<text text-anchor="middle" x="27" y="-31.3" font-family="Times,serif" font-size="14.00">x</text>
<polyline fill="none" stroke="black" points="0,-23.5 54,-23.5 "/>
<text text-anchor="middle" x="13" y="-8.3" font-family="Times,serif" font-size="14.00">l</text>
<polyline fill="none" stroke="black" points="26,-0.5 26,-23.5 "/>
<text text-anchor="middle" x="40" y="-8.3" font-family="Times,serif" font-size="14.00">r</text>
</g>
<!-- node2 -->
<g id="node2" class="node">
<title>node2</title>
<polygon fill="lightblue" stroke="black" points="72,-0.5 72,-46.5 126,-46.5 126,-0.5 72,-0.5"/>
<text text-anchor="middle" x="99" y="-31.3" font-family="Times,serif" font-size="14.00">y</text>
<polyline fill="none" stroke="black" points="72,-23.5 126,-23.5 "/>
<text text-anchor="middle" x="85" y="-8.3" font-family="Times,serif" font-size="14.00">l</text>
<polyline fill="none" stroke="black" points="98,-0.5 98,-23.5 "/>
<text text-anchor="middle" x="112" y="-8.3" font-family="Times,serif" font-size="14.00">r</text>
</g>
<!-- node3 -->
<g id="node3" class="node">
<title>node3</title>
<polygon fill="lightblue" stroke="black" points="108,-83.5 108,-129.5 162,-129.5 162,-83.5 108,-83.5"/>
<text text-anchor="middle" x="135" y="-114.3" font-family="Times,serif" font-size="14.00">z</text>
<polyline fill="none" stroke="black" points="108,-106.5 162,-106.5 "/>
<text text-anchor="middle" x="121" y="-91.3" font-family="Times,serif" font-size="14.00">l</text>
<polyline fill="none" stroke="black" points="134,-83.5 134,-106.5 "/>
<text text-anchor="middle" x="148" y="-91.3" font-family="Times,serif" font-size="14.00">r</text>
</g>
<!-- node4 -->
<g id="node4" class="node">
<title>node4</title>
<polygon fill="lightblue" stroke="black" points="144,-166.5 144,-212.5 198,-212.5 198,-166.5 144,-166.5"/>
<text text-anchor="middle" x="171" y="-197.3" font-family="Times,serif" font-size="14.00">expr</text>
<polyline fill="none" stroke="black" points="144,-189.5 198,-189.5 "/>
<text text-anchor="middle" x="157" y="-174.3" font-family="Times,serif" font-size="14.00">l</text>
<polyline fill="none" stroke="black" points="170,-166.5 170,-189.5 "/>
<text text-anchor="middle" x="184" y="-174.3" font-family="Times,serif" font-size="14.00">r</text>
</g>
<!-- node5 -->
<g id="node5" class="node">
<title>node5</title>
<polygon fill="lightblue" stroke="black" points="36,-83.5 36,-129.5 90,-129.5 90,-83.5 36,-83.5"/>
<text text-anchor="middle" x="63" y="-114.3" font-family="Times,serif" font-size="14.00">=</text>
<polyline fill="none" stroke="black" points="36,-106.5 90,-106.5 "/>
<text text-anchor="middle" x="49" y="-91.3" font-family="Times,serif" font-size="14.00">l</text>
<polyline fill="none" stroke="black" points="62,-83.5 62,-106.5 "/>
<text text-anchor="middle" x="76" y="-91.3" font-family="Times,serif" font-size="14.00">r</text>
</g>
<!-- node5&#45;&gt;node1 -->
<g id="edge1" class="edge">
<title>node5:l&#45;&gt;node1</title>
<path fill="none" stroke="red" d="M48.12,-72.9C47.15,-67.08 45.46,-61.3 43.44,-55.88"/>
<polygon fill="red" stroke="red" points="44.65,-73.34 49,-83 51.62,-72.73 44.65,-73.34"/>
<polygon fill="red" stroke="red" points="46.63,-54.43 39.54,-46.56 40.17,-57.13 46.63,-54.43"/>
</g>
<!-- node5&#45;&gt;node2 -->
<g id="edge2" class="edge">
<title>node5:r&#45;&gt;node2</title>
<path fill="none" stroke="green" d="M76.9,-72.94C77.9,-67.15 79.64,-61.42 81.72,-56.03"/>
<polygon fill="green" stroke="green" points="73.41,-72.73 76,-83 80.38,-73.35 73.41,-72.73"/>
<polygon fill="green" stroke="green" points="84.97,-57.34 85.75,-46.77 78.55,-54.54 84.97,-57.34"/>
</g>
<!-- node6 -->
<g id="node6" class="node">
<title>node6</title>
<polygon fill="lightblue" stroke="black" points="72,-166.5 72,-212.5 126,-212.5 126,-166.5 72,-166.5"/>
<text text-anchor="middle" x="99" y="-197.3" font-family="Times,serif" font-size="14.00">=</text>
<polyline fill="none" stroke="black" points="72,-189.5 126,-189.5 "/>
<text text-anchor="middle" x="85" y="-174.3" font-family="Times,serif" font-size="14.00">l</text>
<polyline fill="none" stroke="black" points="98,-166.5 98,-189.5 "/>
<text text-anchor="middle" x="112" y="-174.3" font-family="Times,serif" font-size="14.00">r</text>
</g>
<!-- node6&#45;&gt;node3 -->
<g id="edge4" class="edge">
<title>node6:r&#45;&gt;node3</title>
<path fill="none" stroke="green" d="M112.9,-155.94C113.9,-150.15 115.64,-144.42 117.72,-139.03"/>
<polygon fill="green" stroke="green" points="109.41,-155.73 112,-166 116.38,-156.35 109.41,-155.73"/>
<polygon fill="green" stroke="green" points="120.97,-140.34 121.75,-129.77 114.55,-137.54 120.97,-140.34"/>
</g>
<!-- node6&#45;&gt;node5 -->
<g id="edge3" class="edge">
<title>node6:l&#45;&gt;node5</title>
<path fill="none" stroke="red" d="M84.12,-155.9C83.15,-150.08 81.46,-144.3 79.44,-138.88"/>
<polygon fill="red" stroke="red" points="80.65,-156.34 85,-166 87.62,-155.73 80.65,-156.34"/>
<polygon fill="red" stroke="red" points="82.63,-137.43 75.54,-129.56 76.17,-140.13 82.63,-137.43"/>
</g>
<!-- node7 -->
<g id="node7" class="node">
<title>node7</title>
<polygon fill="lightblue" stroke="black" points="108,-249.5 108,-295.5 162,-295.5 162,-249.5 108,-249.5"/>
<text text-anchor="middle" x="135" y="-280.3" font-family="Times,serif" font-size="14.00">=</text>
<polyline fill="none" stroke="black" points="108,-272.5 162,-272.5 "/>
<text text-anchor="middle" x="121" y="-257.3" font-family="Times,serif" font-size="14.00">l</text>
<polyline fill="none" stroke="black" points="134,-249.5 134,-272.5 "/>
<text text-anchor="middle" x="148" y="-257.3" font-family="Times,serif" font-size="14.00">r</text>
</g>
<!-- node7&#45;&gt;node4 -->
<g id="edge6" class="edge">
<title>node7:r&#45;&gt;node4</title>
<path fill="none" stroke="green" d="M148.9,-238.94C149.9,-233.15 151.64,-227.42 153.72,-222.03"/>
<polygon fill="green" stroke="green" points="145.41,-238.73 148,-249 152.38,-239.35 145.41,-238.73"/>
<polygon fill="green" stroke="green" points="156.97,-223.34 157.75,-212.77 150.55,-220.54 156.97,-223.34"/>
</g>
<!-- node7&#45;&gt;node6 -->
<g id="edge5" class="edge">
<title>node7:l&#45;&gt;node6</title>
<path fill="none" stroke="red" d="M120.12,-238.9C119.15,-233.08 117.46,-227.3 115.44,-221.88"/>
<polygon fill="red" stroke="red" points="116.65,-239.34 121,-249 123.62,-238.73 116.65,-239.34"/>
<polygon fill="red" stroke="red" points="118.63,-220.43 111.54,-212.56 112.17,-223.13 118.63,-220.43"/>
</g>
</g>
</svg>
