<?xml version="1.0" encoding="UTF-8" standalone="no"?>
<!DOCTYPE svg PUBLIC "-//W3C//DTD SVG 1.1//EN"
 "http://www.w3.org/Graphics/SVG/1.1/DTD/svg11.dtd">
<!-- Generated by graphviz version 2.43.0 (0)
 -->
<!-- Title: G Pages: 1 -->
<svg width="75pt" height="138pt"
 viewBox="0.00 0.00 75.00 138.00" xmlns="http://www.w3.org/2000/svg" xmlns:xlink="http://www.w3.org/1999/xlink">
<g id="graph0" class="graph" transform="scale(1 1) rotate(0) translate(4 134)">
<title>G</title>
<polygon fill="white" stroke="transparent" points="-4,4 -4,-134 71,-134 71,4 -4,4"/>
<!-- node1 -->
<g id="node1" class="node">
<title>node1</title>
<polygon fill="lightblue" stroke="black" points="0,-83.5 0,-129.5 54,-129.5 54,-83.5 0,-83.5"/>
<text text-anchor="middle" x="27" y="-114.3" font-family="Times,serif" font-size="14.00">int</text>
<polyline fill="none" stroke="black" points="0,-106.5 54,-106.5 "/>
<text text-anchor="middle" x="13" y="-91.3" font-family="Times,serif" font-size="14.00">l</text>
<polyline fill="none" stroke="black" points="26,-83.5 26,-106.5 "/>
<text text-anchor="middle" x="40" y="-91.3" font-family="Times,serif" font-size="14.00">r</text>
</g>
<!-- node2 -->
<g id="node2" class="node">
<title>node2</title>
<polygon fill="lightblue" stroke="black" points="13,-0.5 13,-46.5 67,-46.5 67,-0.5 13,-0.5"/>
<text text-anchor="middle" x="40" y="-31.3" font-family="Times,serif" font-size="14.00">x</text>
<polyline fill="none" stroke="black" points="13,-23.5 67,-23.5 "/>
<text text-anchor="middle" x="26" y="-8.3" font-family="Times,serif" font-size="14.00">l</text>
<polyline fill="none" stroke="black" points="39,-0.5 39,-23.5 "/>
<text text-anchor="middle" x="53" y="-8.3" font-family="Times,serif" font-size="14.00">r</text>
</g>
<!-- node1&#45;&gt;node2 -->
<g id="edge1" class="edge">
<title>node1:r&#45;&gt;node2</title>
<path fill="none" stroke="green" d="M40,-72.94C40,-67.56 40,-62.13 40,-56.94"/>
<polygon fill="green" stroke="green" points="36.5,-73 40,-83 43.5,-73 36.5,-73"/>
<polygon fill="green" stroke="green" points="43.5,-56.72 40,-46.72 36.5,-56.72 43.5,-56.72"/>
</g>
</g>
</svg>
