<?xml version="1.0" encoding="UTF-8" standalone="no"?>
<!DOCTYPE svg PUBLIC "-//W3C//DTD SVG 1.1//EN"
 "http://www.w3.org/Graphics/SVG/1.1/DTD/svg11.dtd">
<!-- Generated by graphviz version 2.43.0 (0)
 -->
<!-- Title: G Pages: 1 -->
<svg width="134pt" height="221pt"
 viewBox="0.00 0.00 134.00 221.00" xmlns="http://www.w3.org/2000/svg" xmlns:xlink="http://www.w3.org/1999/xlink">
<g id="graph0" class="graph" transform="scale(1 1) rotate(0) translate(4 217)">
<title>G</title>
<polygon fill="white" stroke="transparent" points="-4,4 -4,-217 130,-217 130,4 -4,4"/>
<!-- node1 -->
<g id="node1" class="node">
<title>node1</title>
<polygon fill="lightblue" stroke="black" points="23,-166.5 23,-212.5 77,-212.5 77,-166.5 23,-166.5"/>
<text text-anchor="middle" x="50" y="-197.3" font-family="Times,serif" font-size="14.00">int</text>
<polyline fill="none" stroke="black" points="23,-189.5 77,-189.5 "/>
<text text-anchor="middle" x="36" y="-174.3" font-family="Times,serif" font-size="14.00">l</text>
<polyline fill="none" stroke="black" points="49,-166.5 49,-189.5 "/>
<text text-anchor="middle" x="63" y="-174.3" font-family="Times,serif" font-size="14.00">r</text>
</g>
<!-- node4 -->
<g id="node4" class="node">
<title>node4</title>
<polygon fill="lightblue" stroke="black" points="36,-83.5 36,-129.5 90,-129.5 90,-83.5 36,-83.5"/>
<text text-anchor="middle" x="63" y="-114.3" font-family="Times,serif" font-size="14.00">=</text>
<polyline fill="none" stroke="black" points="36,-106.5 90,-106.5 "/>
<text text-anchor="middle" x="49" y="-91.3" font-family="Times,serif" font-size="14.00">l</text>
<polyline fill="none" stroke="black" points="62,-83.5 62,-106.5 "/>
<text text-anchor="middle" x="76" y="-91.3" font-family="Times,serif" font-size="14.00">r</text>
</g>
<!-- node1&#45;&gt;node4 -->
<g id="edge1" class="edge">
<title>node1:r&#45;&gt;node4</title>
<path fill="none" stroke="green" d="M63,-155.94C63,-150.56 63,-145.13 63,-139.94"/>
<polygon fill="green" stroke="green" points="59.5,-156 63,-166 66.5,-156 59.5,-156"/>
<polygon fill="green" stroke="green" points="66.5,-139.72 63,-129.72 59.5,-139.72 66.5,-139.72"/>
</g>
<!-- node2 -->
<g id="node2" class="node">
<title>node2</title>
<polygon fill="lightblue" stroke="black" points="0,-0.5 0,-46.5 54,-46.5 54,-0.5 0,-0.5"/>
<text text-anchor="middle" x="27" y="-31.3" font-family="Times,serif" font-size="14.00">x</text>
<polyline fill="none" stroke="black" points="0,-23.5 54,-23.5 "/>
<text text-anchor="middle" x="13" y="-8.3" font-family="Times,serif" font-size="14.00">l</text>
<polyline fill="none" stroke="black" points="26,-0.5 26,-23.5 "/>
<text text-anchor="middle" x="40" y="-8.3" font-family="Times,serif" font-size="14.00">r</text>
</g>
<!-- node3 -->
<g id="node3" class="node">
<title>node3</title>
<polygon fill="lightblue" stroke="black" points="72,-0.5 72,-46.5 126,-46.5 126,-0.5 72,-0.5"/>
<text text-anchor="middle" x="99" y="-31.3" font-family="Times,serif" font-size="14.00">expr</text>
<polyline fill="none" stroke="black" points="72,-23.5 126,-23.5 "/>
<text text-anchor="middle" x="85" y="-8.3" font-family="Times,serif" font-size="14.00">l</text>
<polyline fill="none" stroke="black" points="98,-0.5 98,-23.5 "/>
<text text-anchor="middle" x="112" y="-8.3" font-family="Times,serif" font-size="14.00">r</text>
</g>
<!-- node4&#45;&gt;node2 -->
<g id="edge2" class="edge">
<title>node4:l&#45;&gt;node2</title>
<path fill="none" stroke="red" d="M48.12,-72.9C47.15,-67.08 45.46,-61.3 43.44,-55.88"/>
<polygon fill="red" stroke="red" points="44.65,-73.34 49,-83 51.62,-72.73 44.65,-73.34"/>
<polygon fill="red" stroke="red" points="46.63,-54.43 39.54,-46.56 40.17,-57.13 46.63,-54.43"/>
</g>
<!-- node4&#45;&gt;node3 -->
<g id="edge3" class="edge">
<title>node4:r&#45;&gt;node3</title>
<path fill="none" stroke="green" d="M76.9,-72.94C77.9,-67.15 79.64,-61.42 81.72,-56.03"/>
<polygon fill="green" stroke="green" points="73.41,-72.73 76,-83 80.38,-73.35 73.41,-72.73"/>
<polygon fill="green" stroke="green" points="84.97,-57.34 85.75,-46.77 78.55,-54.54 84.97,-57.34"/>
</g>
</g>
</svg>
