<?xml version="1.0" encoding="UTF-8" standalone="no"?>
<!DOCTYPE svg PUBLIC "-//W3C//DTD SVG 1.1//EN"
 "http://www.w3.org/Graphics/SVG/1.1/DTD/svg11.dtd">
<!-- Generated by graphviz version 2.43.0 (0)
 -->
<!-- Title: G Pages: 1 -->
<svg width="134pt" height="221pt"
 viewBox="0.00 0.00 134.00 221.00" xmlns="http://www.w3.org/2000/svg" xmlns:xlink="http://www.w3.org/1999/xlink">
<g id="graph0" class="graph" transform="scale(1 1) rotate(0) translate(4 217)">
<title>G</title>
<polygon fill="white" stroke="transparent" points="-4,4 -4,-217 130,-217 130,4 -4,4"/>
<!-- node1 -->
<g id="node1" class="node">
<title>node1</title>
<polygon fill="lightblue" stroke="black" points="36.5,-166.5 36.5,-212.5 91.5,-212.5 91.5,-166.5 36.5,-166.5"/>
<text text-anchor="middle" x="64" y="-197.3" font-family="Times,serif" font-size="14.00">while</text>
<polyline fill="none" stroke="black" points="36.5,-189.5 91.5,-189.5 "/>
<text text-anchor="middle" x="49.5" y="-174.3" font-family="Times,serif" font-size="14.00">l</text>
<polyline fill="none" stroke="black" points="62.5,-166.5 62.5,-189.5 "/>
<text text-anchor="middle" x="77" y="-174.3" font-family="Times,serif" font-size="14.00">r</text>
</g>
<!-- node2 -->
<g id="node2" class="node">
<title>node2</title>
<polygon fill="lightblue" stroke="black" points="0,-83.5 0,-129.5 54,-129.5 54,-83.5 0,-83.5"/>
<text text-anchor="middle" x="27" y="-114.3" font-family="Times,serif" font-size="14.00">cond</text>
<polyline fill="none" stroke="black" points="0,-106.5 54,-106.5 "/>
<text text-anchor="middle" x="13" y="-91.3" font-family="Times,serif" font-size="14.00">l</text>
<polyline fill="none" stroke="black" points="26,-83.5 26,-106.5 "/>
<text text-anchor="middle" x="40" y="-91.3" font-family="Times,serif" font-size="14.00">r</text>
</g>
<!-- node1&#45;&gt;node2 -->
<g id="edge1" class="edge">
<title>node1:l&#45;&gt;node2</title>
<path fill="none" stroke="red" d="M48.12,-155.9C47.15,-150.08 45.46,-144.3 43.44,-138.88"/>
<polygon fill="red" stroke="red" points="44.65,-156.34 49,-166 51.62,-155.73 44.65,-156.34"/>
<polygon fill="red" stroke="red" points="46.63,-137.43 39.54,-129.56 40.17,-140.13 46.63,-137.43"/>
</g>
<!-- node4 -->
<g id="node4" class="node">
<title>node4</title>
<polygon fill="lightblue" stroke="black" points="72,-83.5 72,-129.5 126,-129.5 126,-83.5 72,-83.5"/>
<text text-anchor="middle" x="99" y="-114.3" font-family="Times,serif" font-size="14.00">;</text>
<polyline fill="none" stroke="black" points="72,-106.5 126,-106.5 "/>
<text text-anchor="middle" x="85" y="-91.3" font-family="Times,serif" font-size="14.00">l</text>
<polyline fill="none" stroke="black" points="98,-83.5 98,-106.5 "/>
<text text-anchor="middle" x="112" y="-91.3" font-family="Times,serif" font-size="14.00">r</text>
</g>
<!-- node1&#45;&gt;node4 -->
<g id="edge2" class="edge">
<title>node1:r&#45;&gt;node4</title>
<path fill="none" stroke="green" d="M77.88,-155.9C78.85,-150.08 80.54,-144.3 82.56,-138.88"/>
<polygon fill="green" stroke="green" points="74.38,-155.73 77,-166 81.35,-156.34 74.38,-155.73"/>
<polygon fill="green" stroke="green" points="85.83,-140.13 86.46,-129.56 79.37,-137.43 85.83,-140.13"/>
</g>
<!-- node3 -->
<g id="node3" class="node">
<title>node3</title>
<polygon fill="lightblue" stroke="black" points="58,-0.5 58,-46.5 112,-46.5 112,-0.5 58,-0.5"/>
<text text-anchor="middle" x="85" y="-31.3" font-family="Times,serif" font-size="14.00">body</text>
<polyline fill="none" stroke="black" points="58,-23.5 112,-23.5 "/>
<text text-anchor="middle" x="71" y="-8.3" font-family="Times,serif" font-size="14.00">l</text>
<polyline fill="none" stroke="black" points="84,-0.5 84,-23.5 "/>
<text text-anchor="middle" x="98" y="-8.3" font-family="Times,serif" font-size="14.00">r</text>
</g>
<!-- node4&#45;&gt;node3 -->
<g id="edge3" class="edge">
<title>node4:l&#45;&gt;node3</title>
<path fill="none" stroke="red" d="M85,-72.94C85,-67.56 85,-62.13 85,-56.94"/>
<polygon fill="red" stroke="red" points="81.5,-73 85,-83 88.5,-73 81.5,-73"/>
<polygon fill="red" stroke="red" points="88.5,-56.72 85,-46.72 81.5,-56.72 88.5,-56.72"/>
</g>
</g>
</svg>
