<?xml version="1.0" encoding="UTF-8" standalone="no"?>
<!DOCTYPE svg PUBLIC "-//W3C//DTD SVG 1.1//EN"
 "http://www.w3.org/Graphics/SVG/1.1/DTD/svg11.dtd">
<!-- Generated by graphviz version 2.43.0 (0)
 -->
<!-- Title: G Pages: 1 -->
<svg width="170pt" height="387pt"
 viewBox="0.00 0.00 170.00 387.00" xmlns="http://www.w3.org/2000/svg" xmlns:xlink="http://www.w3.org/1999/xlink">
<g id="graph0" class="graph" transform="scale(1 1) rotate(0) translate(4 383)">
<title>G</title>
<polygon fill="white" stroke="transparent" points="-4,4 -4,-383 166,-383 166,4 -4,4"/>
<!-- node1 -->
<g id="node1" class="node">
<title>node1</title>
<polygon fill="lightblue" stroke="black" points="72,-249.5 72,-295.5 126,-295.5 126,-249.5 72,-249.5"/>
<text text-anchor="middle" x="99" y="-280.3" font-family="Times,serif" font-size="14.00">func</text>
<polyline fill="none" stroke="black" points="72,-272.5 126,-272.5 "/>
<text text-anchor="middle" x="85" y="-257.3" font-family="Times,serif" font-size="14.00">l</text>
<polyline fill="none" stroke="black" points="98,-249.5 98,-272.5 "/>
<text text-anchor="middle" x="112" y="-257.3" font-family="Times,serif" font-size="14.00">r</text>
</g>
<!-- node2 -->
<g id="node2" class="node">
<title>node2</title>
<polygon fill="lightblue" stroke="black" points="36,-166.5 36,-212.5 90,-212.5 90,-166.5 36,-166.5"/>
<text text-anchor="middle" x="63" y="-197.3" font-family="Times,serif" font-size="14.00">int</text>
<polyline fill="none" stroke="black" points="36,-189.5 90,-189.5 "/>
<text text-anchor="middle" x="49" y="-174.3" font-family="Times,serif" font-size="14.00">l</text>
<polyline fill="none" stroke="black" points="62,-166.5 62,-189.5 "/>
<text text-anchor="middle" x="76" y="-174.3" font-family="Times,serif" font-size="14.00">r</text>
</g>
<!-- node1&#45;&gt;node2 -->
<g id="edge2" class="edge">
<title>node1:l&#45;&gt;node2</title>
<path fill="none" stroke="red" d="M84.12,-238.9C83.15,-233.08 81.46,-227.3 79.44,-221.88"/>
<polygon fill="red" stroke="red" points="80.65,-239.34 85,-249 87.62,-238.73 80.65,-239.34"/>
<polygon fill="red" stroke="red" points="82.63,-220.43 75.54,-212.56 76.17,-223.13 82.63,-220.43"/>
</g>
<!-- node6 -->
<g id="node6" class="node">
<title>node6</title>
<polygon fill="lightblue" stroke="black" points="108,-166.5 108,-212.5 162,-212.5 162,-166.5 108,-166.5"/>
<text text-anchor="middle" x="135" y="-197.3" font-family="Times,serif" font-size="14.00">block</text>
<polyline fill="none" stroke="black" points="108,-189.5 162,-189.5 "/>
<text text-anchor="middle" x="121" y="-174.3" font-family="Times,serif" font-size="14.00">l</text>
<polyline fill="none" stroke="black" points="134,-166.5 134,-189.5 "/>
<text text-anchor="middle" x="148" y="-174.3" font-family="Times,serif" font-size="14.00">r</text>
</g>
<!-- node1&#45;&gt;node6 -->
<g id="edge6" class="edge">
<title>node1:r&#45;&gt;node6</title>
<path fill="none" stroke="green" d="M112.9,-238.94C113.9,-233.15 115.64,-227.42 117.72,-222.03"/>
<polygon fill="green" stroke="green" points="109.41,-238.73 112,-249 116.38,-239.35 109.41,-238.73"/>
<polygon fill="green" stroke="green" points="120.97,-223.34 121.75,-212.77 114.55,-220.54 120.97,-223.34"/>
</g>
<!-- node3 -->
<g id="node3" class="node">
<title>node3</title>
<polygon fill="lightblue" stroke="black" points="72,-83.5 72,-129.5 126,-129.5 126,-83.5 72,-83.5"/>
<text text-anchor="middle" x="99" y="-114.3" font-family="Times,serif" font-size="14.00">a</text>
<polyline fill="none" stroke="black" points="72,-106.5 126,-106.5 "/>
<text text-anchor="middle" x="85" y="-91.3" font-family="Times,serif" font-size="14.00">l</text>
<polyline fill="none" stroke="black" points="98,-83.5 98,-106.5 "/>
<text text-anchor="middle" x="112" y="-91.3" font-family="Times,serif" font-size="14.00">r</text>
</g>
<!-- node2&#45;&gt;node3 -->
<g id="edge3" class="edge">
<title>node2:r&#45;&gt;node3</title>
<path fill="none" stroke="green" d="M76.9,-155.94C77.9,-150.15 79.64,-144.42 81.72,-139.03"/>
<polygon fill="green" stroke="green" points="73.41,-155.73 76,-166 80.38,-156.35 73.41,-155.73"/>
<polygon fill="green" stroke="green" points="84.97,-140.34 85.75,-129.77 78.55,-137.54 84.97,-140.34"/>
</g>
<!-- node4 -->
<g id="node4" class="node">
<title>node4</title>
<polygon fill="lightblue" stroke="black" points="0,-83.5 0,-129.5 54,-129.5 54,-83.5 0,-83.5"/>
<text text-anchor="middle" x="27" y="-114.3" font-family="Times,serif" font-size="14.00">char</text>
<polyline fill="none" stroke="black" points="0,-106.5 54,-106.5 "/>
<text text-anchor="middle" x="13" y="-91.3" font-family="Times,serif" font-size="14.00">l</text>
<polyline fill="none" stroke="black" points="26,-83.5 26,-106.5 "/>
<text text-anchor="middle" x="40" y="-91.3" font-family="Times,serif" font-size="14.00">r</text>
</g>
<!-- node2&#45;&gt;node4 -->
<g id="edge4" class="edge">
<title>node2:l&#45;&gt;node4</title>
<path fill="none" stroke="red" d="M48.12,-155.9C47.15,-150.08 45.46,-144.3 43.44,-138.88"/>
<polygon fill="red" stroke="red" points="44.65,-156.34 49,-166 51.62,-155.73 44.65,-156.34"/>
<polygon fill="red" stroke="red" points="46.63,-137.43 39.54,-129.56 40.17,-140.13 46.63,-137.43"/>
</g>
<!-- node5 -->
<g id="node5" class="node">
<title>node5</title>
<polygon fill="lightblue" stroke="black" points="13,-0.5 13,-46.5 67,-46.5 67,-0.5 13,-0.5"/>
<text text-anchor="middle" x="40" y="-31.3" font-family="Times,serif" font-size="14.00">b</text>
<polyline fill="none" stroke="black" points="13,-23.5 67,-23.5 "/>
<text text-anchor="middle" x="26" y="-8.3" font-family="Times,serif" font-size="14.00">l</text>
<polyline fill="none" stroke="black" points="39,-0.5 39,-23.5 "/>
<text text-anchor="middle" x="53" y="-8.3" font-family="Times,serif" font-size="14.00">r</text>
</g>
<!-- node4&#45;&gt;node5 -->
<g id="edge5" class="edge">
<title>node4:r&#45;&gt;node5</title>
<path fill="none" stroke="green" d="M40,-72.94C40,-67.56 40,-62.13 40,-56.94"/>
<polygon fill="green" stroke="green" points="36.5,-73 40,-83 43.5,-73 36.5,-73"/>
<polygon fill="green" stroke="green" points="43.5,-56.72 40,-46.72 36.5,-56.72 43.5,-56.72"/>
</g>
<!-- node7 -->
<g id="node7" class="node">
<title>node7</title>
<polygon fill="lightblue" stroke="black" points="59,-332.5 59,-378.5 113,-378.5 113,-332.5 59,-332.5"/>
<text text-anchor="middle" x="86" y="-363.3" font-family="Times,serif" font-size="14.00">int</text>
<polyline fill="none" stroke="black" points="59,-355.5 113,-355.5 "/>
<text text-anchor="middle" x="72" y="-340.3" font-family="Times,serif" font-size="14.00">l</text>
<polyline fill="none" stroke="black" points="85,-332.5 85,-355.5 "/>
<text text-anchor="middle" x="99" y="-340.3" font-family="Times,serif" font-size="14.00">r</text>
</g>
<!-- node7&#45;&gt;node1 -->
<g id="edge1" class="edge">
<title>node7:r&#45;&gt;node1</title>
<path fill="none" stroke="green" d="M99,-321.94C99,-316.56 99,-311.13 99,-305.94"/>
<polygon fill="green" stroke="green" points="95.5,-322 99,-332 102.5,-322 95.5,-322"/>
<polygon fill="green" stroke="green" points="102.5,-305.72 99,-295.72 95.5,-305.72 102.5,-305.72"/>
</g>
</g>
</svg>
