<?xml version="1.0" encoding="UTF-8" standalone="no"?>
<!DOCTYPE svg PUBLIC "-//W3C//DTD SVG 1.1//EN"
 "http://www.w3.org/Graphics/SVG/1.1/DTD/svg11.dtd">
<!-- Generated by graphviz version 2.43.0 (0)
 -->
<!-- Title: G Pages: 1 -->
<svg width="315pt" height="719pt"
 viewBox="0.00 0.00 315.00 719.00" xmlns="http://www.w3.org/2000/svg" xmlns:xlink="http://www.w3.org/1999/xlink">
<g id="graph0" class="graph" transform="scale(1 1) rotate(0) translate(4 715)">
<title>G</title>
<polygon fill="white" stroke="transparent" points="-4,4 -4,-715 311,-715 311,4 -4,4"/>
<!-- node1 -->
<g id="node1" class="node">
<title>node1</title>
<polygon fill="lightblue" stroke="black" points="36,-664.5 36,-710.5 90,-710.5 90,-664.5 36,-664.5"/>
<text text-anchor="middle" x="63" y="-695.3" font-family="Times,serif" font-size="14.00">if</text>
<polyline fill="none" stroke="black" points="36,-687.5 90,-687.5 "/>
<text text-anchor="middle" x="49" y="-672.3" font-family="Times,serif" font-size="14.00">l</text>
<polyline fill="none" stroke="black" points="62,-664.5 62,-687.5 "/>
<text text-anchor="middle" x="76" y="-672.3" font-family="Times,serif" font-size="14.00">r</text>
</g>
<!-- node2 -->
<g id="node2" class="node">
<title>node2</title>
<polygon fill="lightblue" stroke="black" points="0,-581.5 0,-627.5 54,-627.5 54,-581.5 0,-581.5"/>
<text text-anchor="middle" x="27" y="-612.3" font-family="Times,serif" font-size="14.00">cond</text>
<polyline fill="none" stroke="black" points="0,-604.5 54,-604.5 "/>
<text text-anchor="middle" x="13" y="-589.3" font-family="Times,serif" font-size="14.00">l</text>
<polyline fill="none" stroke="black" points="26,-581.5 26,-604.5 "/>
<text text-anchor="middle" x="40" y="-589.3" font-family="Times,serif" font-size="14.00">r</text>
</g>
<!-- node1&#45;&gt;node2 -->
<g id="edge1" class="edge">
<title>node1:l&#45;&gt;node2</title>
<path fill="none" stroke="red" d="M48.12,-653.9C47.15,-648.08 45.46,-642.3 43.44,-636.88"/>
<polygon fill="red" stroke="red" points="44.65,-654.34 49,-664 51.62,-653.73 44.65,-654.34"/>
<polygon fill="red" stroke="red" points="46.63,-635.43 39.54,-627.56 40.17,-638.13 46.63,-635.43"/>
</g>
<!-- node4 -->
<g id="node4" class="node">
<title>node4</title>
<polygon fill="lightblue" stroke="black" points="72,-581.5 72,-627.5 126,-627.5 126,-581.5 72,-581.5"/>
<text text-anchor="middle" x="99" y="-612.3" font-family="Times,serif" font-size="14.00">;</text>
<polyline fill="none" stroke="black" points="72,-604.5 126,-604.5 "/>
<text text-anchor="middle" x="85" y="-589.3" font-family="Times,serif" font-size="14.00">l</text>
<polyline fill="none" stroke="black" points="98,-581.5 98,-604.5 "/>
<text text-anchor="middle" x="112" y="-589.3" font-family="Times,serif" font-size="14.00">r</text>
</g>
<!-- node1&#45;&gt;node4 -->
<g id="edge2" class="edge">
<title>node1:r&#45;&gt;node4</title>
<path fill="none" stroke="green" d="M76.9,-653.94C77.9,-648.15 79.64,-642.42 81.72,-637.03"/>
<polygon fill="green" stroke="green" points="73.41,-653.73 76,-664 80.38,-654.35 73.41,-653.73"/>
<polygon fill="green" stroke="green" points="84.97,-638.34 85.75,-627.77 78.55,-635.54 84.97,-638.34"/>
</g>
<!-- node3 -->
<g id="node3" class="node">
<title>node3</title>
<polygon fill="lightblue" stroke="black" points="35,-498.5 35,-544.5 89,-544.5 89,-498.5 35,-498.5"/>
<text text-anchor="middle" x="62" y="-529.3" font-family="Times,serif" font-size="14.00">body</text>
<polyline fill="none" stroke="black" points="35,-521.5 89,-521.5 "/>
<text text-anchor="middle" x="48" y="-506.3" font-family="Times,serif" font-size="14.00">l</text>
<polyline fill="none" stroke="black" points="61,-498.5 61,-521.5 "/>
<text text-anchor="middle" x="75" y="-506.3" font-family="Times,serif" font-size="14.00">r</text>
</g>
<!-- node4&#45;&gt;node3 -->
<g id="edge3" class="edge">
<title>node4:l&#45;&gt;node3</title>
<path fill="none" stroke="red" d="M84.1,-570.94C83.1,-565.15 81.36,-559.42 79.28,-554.03"/>
<polygon fill="red" stroke="red" points="80.62,-571.35 85,-581 87.59,-570.73 80.62,-571.35"/>
<polygon fill="red" stroke="red" points="82.45,-552.54 75.25,-544.77 76.03,-555.34 82.45,-552.54"/>
</g>
<!-- node5 -->
<g id="node5" class="node">
<title>node5</title>
<polygon fill="lightblue" stroke="black" points="107,-498.5 107,-544.5 161,-544.5 161,-498.5 107,-498.5"/>
<text text-anchor="middle" x="134" y="-529.3" font-family="Times,serif" font-size="14.00">;</text>
<polyline fill="none" stroke="black" points="107,-521.5 161,-521.5 "/>
<text text-anchor="middle" x="120" y="-506.3" font-family="Times,serif" font-size="14.00">l</text>
<polyline fill="none" stroke="black" points="133,-498.5 133,-521.5 "/>
<text text-anchor="middle" x="147" y="-506.3" font-family="Times,serif" font-size="14.00">r</text>
</g>
<!-- node4&#45;&gt;node5 -->
<g id="edge4" class="edge">
<title>node4:r&#45;&gt;node5</title>
<path fill="none" stroke="green" d="M112.88,-570.9C113.85,-565.08 115.54,-559.3 117.56,-553.88"/>
<polygon fill="green" stroke="green" points="109.38,-570.73 112,-581 116.35,-571.34 109.38,-570.73"/>
<polygon fill="green" stroke="green" points="120.83,-555.13 121.46,-544.56 114.37,-552.43 120.83,-555.13"/>
</g>
<!-- node6 -->
<g id="node6" class="node">
<title>node6</title>
<polygon fill="lightblue" stroke="black" points="120,-415.5 120,-461.5 174,-461.5 174,-415.5 120,-415.5"/>
<text text-anchor="middle" x="147" y="-446.3" font-family="Times,serif" font-size="14.00">if</text>
<polyline fill="none" stroke="black" points="120,-438.5 174,-438.5 "/>
<text text-anchor="middle" x="133" y="-423.3" font-family="Times,serif" font-size="14.00">l</text>
<polyline fill="none" stroke="black" points="146,-415.5 146,-438.5 "/>
<text text-anchor="middle" x="160" y="-423.3" font-family="Times,serif" font-size="14.00">r</text>
</g>
<!-- node5&#45;&gt;node6 -->
<g id="edge5" class="edge">
<title>node5:r&#45;&gt;node6</title>
<path fill="none" stroke="green" d="M147,-487.94C147,-482.56 147,-477.13 147,-471.94"/>
<polygon fill="green" stroke="green" points="143.5,-488 147,-498 150.5,-488 143.5,-488"/>
<polygon fill="green" stroke="green" points="150.5,-471.72 147,-461.72 143.5,-471.72 150.5,-471.72"/>
</g>
<!-- node7 -->
<g id="node7" class="node">
<title>node7</title>
<polygon fill="lightblue" stroke="black" points="84,-332.5 84,-378.5 138,-378.5 138,-332.5 84,-332.5"/>
<text text-anchor="middle" x="111" y="-363.3" font-family="Times,serif" font-size="14.00">cond</text>
<polyline fill="none" stroke="black" points="84,-355.5 138,-355.5 "/>
<text text-anchor="middle" x="97" y="-340.3" font-family="Times,serif" font-size="14.00">l</text>
<polyline fill="none" stroke="black" points="110,-332.5 110,-355.5 "/>
<text text-anchor="middle" x="124" y="-340.3" font-family="Times,serif" font-size="14.00">r</text>
</g>
<!-- node6&#45;&gt;node7 -->
<g id="edge6" class="edge">
<title>node6:l&#45;&gt;node7</title>
<path fill="none" stroke="red" d="M132.12,-404.9C131.15,-399.08 129.46,-393.3 127.44,-387.88"/>
<polygon fill="red" stroke="red" points="128.65,-405.34 133,-415 135.62,-404.73 128.65,-405.34"/>
<polygon fill="red" stroke="red" points="130.63,-386.43 123.54,-378.56 124.17,-389.13 130.63,-386.43"/>
</g>
<!-- node9 -->
<g id="node9" class="node">
<title>node9</title>
<polygon fill="lightblue" stroke="black" points="156,-332.5 156,-378.5 210,-378.5 210,-332.5 156,-332.5"/>
<text text-anchor="middle" x="183" y="-363.3" font-family="Times,serif" font-size="14.00">;</text>
<polyline fill="none" stroke="black" points="156,-355.5 210,-355.5 "/>
<text text-anchor="middle" x="169" y="-340.3" font-family="Times,serif" font-size="14.00">l</text>
<polyline fill="none" stroke="black" points="182,-332.5 182,-355.5 "/>
<text text-anchor="middle" x="196" y="-340.3" font-family="Times,serif" font-size="14.00">r</text>
</g>
<!-- node6&#45;&gt;node9 -->
<g id="edge7" class="edge">
<title>node6:r&#45;&gt;node9</title>
<path fill="none" stroke="green" d="M160.9,-404.94C161.9,-399.15 163.64,-393.42 165.72,-388.03"/>
<polygon fill="green" stroke="green" points="157.41,-404.73 160,-415 164.38,-405.35 157.41,-404.73"/>
<polygon fill="green" stroke="green" points="168.97,-389.34 169.75,-378.77 162.55,-386.54 168.97,-389.34"/>
</g>
<!-- node8 -->
<g id="node8" class="node">
<title>node8</title>
<polygon fill="lightblue" stroke="black" points="119,-249.5 119,-295.5 173,-295.5 173,-249.5 119,-249.5"/>
<text text-anchor="middle" x="146" y="-280.3" font-family="Times,serif" font-size="14.00">body</text>
<polyline fill="none" stroke="black" points="119,-272.5 173,-272.5 "/>
<text text-anchor="middle" x="132" y="-257.3" font-family="Times,serif" font-size="14.00">l</text>
<polyline fill="none" stroke="black" points="145,-249.5 145,-272.5 "/>
<text text-anchor="middle" x="159" y="-257.3" font-family="Times,serif" font-size="14.00">r</text>
</g>
<!-- node9&#45;&gt;node8 -->
<g id="edge8" class="edge">
<title>node9:l&#45;&gt;node8</title>
<path fill="none" stroke="red" d="M168.1,-321.94C167.1,-316.15 165.36,-310.42 163.28,-305.03"/>
<polygon fill="red" stroke="red" points="164.62,-322.35 169,-332 171.59,-321.73 164.62,-322.35"/>
<polygon fill="red" stroke="red" points="166.45,-303.54 159.25,-295.77 160.03,-306.34 166.45,-303.54"/>
</g>
<!-- node10 -->
<g id="node10" class="node">
<title>node10</title>
<polygon fill="lightblue" stroke="black" points="191,-249.5 191,-295.5 245,-295.5 245,-249.5 191,-249.5"/>
<text text-anchor="middle" x="218" y="-280.3" font-family="Times,serif" font-size="14.00">;</text>
<polyline fill="none" stroke="black" points="191,-272.5 245,-272.5 "/>
<text text-anchor="middle" x="204" y="-257.3" font-family="Times,serif" font-size="14.00">l</text>
<polyline fill="none" stroke="black" points="217,-249.5 217,-272.5 "/>
<text text-anchor="middle" x="231" y="-257.3" font-family="Times,serif" font-size="14.00">r</text>
</g>
<!-- node9&#45;&gt;node10 -->
<g id="edge9" class="edge">
<title>node9:r&#45;&gt;node10</title>
<path fill="none" stroke="green" d="M196.88,-321.9C197.85,-316.08 199.54,-310.3 201.56,-304.88"/>
<polygon fill="green" stroke="green" points="193.38,-321.73 196,-332 200.35,-322.34 193.38,-321.73"/>
<polygon fill="green" stroke="green" points="204.83,-306.13 205.46,-295.56 198.37,-303.43 204.83,-306.13"/>
</g>
<!-- node11 -->
<g id="node11" class="node">
<title>node11</title>
<polygon fill="lightblue" stroke="black" points="204,-166.5 204,-212.5 258,-212.5 258,-166.5 204,-166.5"/>
<text text-anchor="middle" x="231" y="-197.3" font-family="Times,serif" font-size="14.00">else</text>
<polyline fill="none" stroke="black" points="204,-189.5 258,-189.5 "/>
<text text-anchor="middle" x="217" y="-174.3" font-family="Times,serif" font-size="14.00">l</text>
<polyline fill="none" stroke="black" points="230,-166.5 230,-189.5 "/>
<text text-anchor="middle" x="244" y="-174.3" font-family="Times,serif" font-size="14.00">r</text>
</g>
<!-- node10&#45;&gt;node11 -->
<g id="edge10" class="edge">
<title>node10:r&#45;&gt;node11</title>
<path fill="none" stroke="green" d="M231,-238.94C231,-233.56 231,-228.13 231,-222.94"/>
<polygon fill="green" stroke="green" points="227.5,-239 231,-249 234.5,-239 227.5,-239"/>
<polygon fill="green" stroke="green" points="234.5,-222.72 231,-212.72 227.5,-222.72 234.5,-222.72"/>
</g>
<!-- node12 -->
<g id="node12" class="node">
<title>node12</title>
<polygon fill="lightblue" stroke="black" points="240,-83.5 240,-129.5 294,-129.5 294,-83.5 240,-83.5"/>
<text text-anchor="middle" x="267" y="-114.3" font-family="Times,serif" font-size="14.00">;</text>
<polyline fill="none" stroke="black" points="240,-106.5 294,-106.5 "/>
<text text-anchor="middle" x="253" y="-91.3" font-family="Times,serif" font-size="14.00">l</text>
<polyline fill="none" stroke="black" points="266,-83.5 266,-106.5 "/>
<text text-anchor="middle" x="280" y="-91.3" font-family="Times,serif" font-size="14.00">r</text>
</g>
<!-- node11&#45;&gt;node12 -->
<g id="edge12" class="edge">
<title>node11:r&#45;&gt;node12</title>
<path fill="none" stroke="green" d="M244.9,-155.94C245.9,-150.15 247.64,-144.42 249.72,-139.03"/>
<polygon fill="green" stroke="green" points="241.41,-155.73 244,-166 248.38,-156.35 241.41,-155.73"/>
<polygon fill="green" stroke="green" points="252.97,-140.34 253.75,-129.77 246.55,-137.54 252.97,-140.34"/>
</g>
<!-- node14 -->
<g id="node14" class="node">
<title>node14</title>
<polygon fill="lightblue" stroke="black" points="168,-83.5 168,-129.5 222,-129.5 222,-83.5 168,-83.5"/>
<text text-anchor="middle" x="195" y="-114.3" font-family="Times,serif" font-size="14.00">body</text>
<polyline fill="none" stroke="black" points="168,-106.5 222,-106.5 "/>
<text text-anchor="middle" x="181" y="-91.3" font-family="Times,serif" font-size="14.00">l</text>
<polyline fill="none" stroke="black" points="194,-83.5 194,-106.5 "/>
<text text-anchor="middle" x="208" y="-91.3" font-family="Times,serif" font-size="14.00">r</text>
</g>
<!-- node11&#45;&gt;node14 -->
<g id="edge11" class="edge">
<title>node11:l&#45;&gt;node14</title>
<path fill="none" stroke="red" d="M216.12,-155.9C215.15,-150.08 213.46,-144.3 211.44,-138.88"/>
<polygon fill="red" stroke="red" points="212.65,-156.34 217,-166 219.62,-155.73 212.65,-156.34"/>
<polygon fill="red" stroke="red" points="214.63,-137.43 207.54,-129.56 208.17,-140.13 214.63,-137.43"/>
</g>
<!-- node13 -->
<g id="node13" class="node">
<title>node13</title>
<polygon fill="lightblue" stroke="black" points="253,-0.5 253,-46.5 307,-46.5 307,-0.5 253,-0.5"/>
<text text-anchor="middle" x="280" y="-31.3" font-family="Times,serif" font-size="14.00">;</text>
<polyline fill="none" stroke="black" points="253,-23.5 307,-23.5 "/>
<text text-anchor="middle" x="266" y="-8.3" font-family="Times,serif" font-size="14.00">l</text>
<polyline fill="none" stroke="black" points="279,-0.5 279,-23.5 "/>
<text text-anchor="middle" x="293" y="-8.3" font-family="Times,serif" font-size="14.00">r</text>
</g>
<!-- node12&#45;&gt;node13 -->
<g id="edge13" class="edge">
<title>node12:r&#45;&gt;node13</title>
<path fill="none" stroke="green" d="M280,-72.94C280,-67.56 280,-62.13 280,-56.94"/>
<polygon fill="green" stroke="green" points="276.5,-73 280,-83 283.5,-73 276.5,-73"/>
<polygon fill="green" stroke="green" points="283.5,-56.72 280,-46.72 276.5,-56.72 283.5,-56.72"/>
</g>
</g>
</svg>
