<?xml version="1.0" encoding="UTF-8" standalone="no"?>
<!DOCTYPE svg PUBLIC "-//W3C//DTD SVG 1.1//EN"
 "http://www.w3.org/Graphics/SVG/1.1/DTD/svg11.dtd">
<!-- Generated by graphviz version 2.43.0 (0)
 -->
<!-- Title: G Pages: 1 -->
<svg width="81pt" height="138pt"
 viewBox="0.00 0.00 81.00 138.00" xmlns="http://www.w3.org/2000/svg" xmlns:xlink="http://www.w3.org/1999/xlink">
<g id="graph0" class="graph" transform="scale(1 1) rotate(0) translate(4 134)">
<title>G</title>
<polygon fill="white" stroke="transparent" points="-4,4 -4,-134 77,-134 77,4 -4,4"/>
<!-- node1 -->
<g id="node1" class="node">
<title>node1</title>
<polygon fill="lightblue" stroke="black" points="0,-83.5 0,-129.5 62,-129.5 62,-83.5 0,-83.5"/>
<text text-anchor="middle" x="31" y="-114.3" font-family="Times,serif" font-size="14.00">return</text>
<polyline fill="none" stroke="black" points="0,-106.5 62,-106.5 "/>
<text text-anchor="middle" x="15" y="-91.3" font-family="Times,serif" font-size="14.00">l</text>
<polyline fill="none" stroke="black" points="30,-83.5 30,-106.5 "/>
<text text-anchor="middle" x="46" y="-91.3" font-family="Times,serif" font-size="14.00">r</text>
</g>
<!-- node3 -->
<g id="node2" class="node">
<title>node3</title>
<polygon fill="lightblue" stroke="black" points="19,-0.5 19,-46.5 73,-46.5 73,-0.5 19,-0.5"/>
<text text-anchor="middle" x="46" y="-31.3" font-family="Times,serif" font-size="14.00">expr</text>
<polyline fill="none" stroke="black" points="19,-23.5 73,-23.5 "/>
<text text-anchor="middle" x="32" y="-8.3" font-family="Times,serif" font-size="14.00">l</text>
<polyline fill="none" stroke="black" points="45,-0.5 45,-23.5 "/>
<text text-anchor="middle" x="59" y="-8.3" font-family="Times,serif" font-size="14.00">r</text>
</g>
<!-- node1&#45;&gt;node3 -->
<g id="edge1" class="edge">
<title>node1:r&#45;&gt;node3</title>
<path fill="none" stroke="green" d="M46,-72.94C46,-67.56 46,-62.13 46,-56.94"/>
<polygon fill="green" stroke="green" points="42.5,-73 46,-83 49.5,-73 42.5,-73"/>
<polygon fill="green" stroke="green" points="49.5,-56.72 46,-46.72 42.5,-56.72 49.5,-56.72"/>
</g>
</g>
</svg>
