<?xml version="1.0" encoding="UTF-8" standalone="no"?>
<!DOCTYPE svg PUBLIC "-//W3C//DTD SVG 1.1//EN"
 "http://www.w3.org/Graphics/SVG/1.1/DTD/svg11.dtd">
<!-- Generated by graphviz version 2.43.0 (0)
 -->
<!-- Title: SymbolTable Pages: 1 -->
<svg width="478pt" height="363pt"
 viewBox="0.00 0.00 478.00 363.00" xmlns="http://www.w3.org/2000/svg" xmlns:xlink="http://www.w3.org/1999/xlink">
<g id="graph0" class="graph" transform="scale(1 1) rotate(0) translate(4 359)">
<title>SymbolTable</title>
<polygon fill="white" stroke="transparent" points="-4,4 -4,-359 474,-359 474,4 -4,4"/>
<!-- stack -->
<g id="node1" class="node">
<title>stack</title>
<polygon fill="lightpink" stroke="black" points="0,-318.5 0,-354.5 360,-354.5 360,-318.5 0,-318.5"/>
<text text-anchor="middle" x="22.5" y="-332.8" font-family="Times,serif" font-size="14.00">0</text>
<polyline fill="none" stroke="black" points="45,-318.5 45,-354.5 "/>
<text text-anchor="middle" x="67.5" y="-332.8" font-family="Times,serif" font-size="14.00">1</text>
<polyline fill="none" stroke="black" points="90,-318.5 90,-354.5 "/>
<text text-anchor="middle" x="112.5" y="-332.8" font-family="Times,serif" font-size="14.00">2</text>
<polyline fill="none" stroke="black" points="135,-318.5 135,-354.5 "/>
<text text-anchor="middle" x="157.5" y="-332.8" font-family="Times,serif" font-size="14.00">3</text>
<polyline fill="none" stroke="black" points="180,-318.5 180,-354.5 "/>
<text text-anchor="middle" x="202.5" y="-332.8" font-family="Times,serif" font-size="14.00">4</text>
<polyline fill="none" stroke="black" points="225,-318.5 225,-354.5 "/>
<text text-anchor="middle" x="247.5" y="-332.8" font-family="Times,serif" font-size="14.00">5</text>
<polyline fill="none" stroke="black" points="270,-318.5 270,-354.5 "/>
<text text-anchor="middle" x="292.5" y="-332.8" font-family="Times,serif" font-size="14.00">6</text>
<polyline fill="none" stroke="black" points="315,-318.5 315,-354.5 "/>
<text text-anchor="middle" x="337.5" y="-332.8" font-family="Times,serif" font-size="14.00">7</text>
</g>
<!-- scope1 -->
<g id="node4" class="node">
<title>scope1</title>
<polygon fill="lightblue" stroke="black" points="30.5,-212.5 30.5,-281.5 213.5,-281.5 213.5,-212.5 30.5,-212.5"/>
<text text-anchor="middle" x="122" y="-266.3" font-family="Times,serif" font-size="14.00">0x503000000400</text>
<polyline fill="none" stroke="black" points="30.5,-258.5 213.5,-258.5 "/>
<text text-anchor="middle" x="122" y="-243.3" font-family="Times,serif" font-size="14.00">level: 2</text>
<polyline fill="none" stroke="black" points="30.5,-235.5 213.5,-235.5 "/>
<text text-anchor="middle" x="122" y="-220.3" font-family="Times,serif" font-size="14.00">prev: 0x503000000340</text>
</g>
<!-- stack&#45;&gt;scope1 -->
<g id="edge1" class="edge">
<title>stack:0&#45;&gt;scope1</title>
<path fill="none" stroke="red" d="M22,-318C22,-306.87 26.21,-297.37 32.89,-289.28"/>
<polygon fill="red" stroke="red" points="35.85,-291.26 40.34,-281.67 30.85,-286.37 35.85,-291.26"/>
</g>
<!-- current_scope -->
<g id="node2" class="node">
<title>current_scope</title>
<polygon fill="orange" stroke="transparent" points="470,-354.5 378,-354.5 378,-318.5 470,-318.5 470,-354.5"/>
<text text-anchor="middle" x="424" y="-332.8" font-family="Times,serif" font-size="14.00">CURRENT</text>
</g>
<!-- scope3 -->
<g id="node6" class="node">
<title>scope3</title>
<polygon fill="lightblue" stroke="black" points="282,-212.5 282,-281.5 464,-281.5 464,-212.5 282,-212.5"/>
<text text-anchor="middle" x="373" y="-266.3" font-family="Times,serif" font-size="14.00">0x503000000580</text>
<polyline fill="none" stroke="black" points="282,-258.5 464,-258.5 "/>
<text text-anchor="middle" x="373" y="-243.3" font-family="Times,serif" font-size="14.00">level: 2</text>
<polyline fill="none" stroke="black" points="282,-235.5 464,-235.5 "/>
<text text-anchor="middle" x="373" y="-220.3" font-family="Times,serif" font-size="14.00">prev: 0x5030000004c0</text>
</g>
<!-- current_scope&#45;&gt;scope3 -->
<g id="edge6" class="edge">
<title>current_scope&#45;&gt;scope3</title>
<path fill="none" stroke="brown" d="M413.92,-318.21C409.26,-310.21 403.49,-300.3 397.76,-290.49"/>
<polygon fill="brown" stroke="brown" points="400.61,-288.43 392.55,-281.55 394.57,-291.95 400.61,-288.43"/>
</g>
<!-- scope0 -->
<g id="node3" class="node">
<title>scope0</title>
<polygon fill="lightblue" stroke="black" points="151,-0.5 151,-69.5 293,-69.5 293,-0.5 151,-0.5"/>
<text text-anchor="middle" x="222" y="-54.3" font-family="Times,serif" font-size="14.00">0x503000000250</text>
<polyline fill="none" stroke="black" points="151,-46.5 293,-46.5 "/>
<text text-anchor="middle" x="222" y="-31.3" font-family="Times,serif" font-size="14.00">level: 0</text>
<polyline fill="none" stroke="black" points="151,-23.5 293,-23.5 "/>
<text text-anchor="middle" x="222" y="-8.3" font-family="Times,serif" font-size="14.00">prev: (nil)</text>
</g>
<!-- scope2 -->
<g id="node5" class="node">
<title>scope2</title>
<polygon fill="lightblue" stroke="black" points="30.5,-106.5 30.5,-175.5 213.5,-175.5 213.5,-106.5 30.5,-106.5"/>
<text text-anchor="middle" x="122" y="-160.3" font-family="Times,serif" font-size="14.00">0x503000000340</text>
<polyline fill="none" stroke="black" points="30.5,-152.5 213.5,-152.5 "/>
<text text-anchor="middle" x="122" y="-137.3" font-family="Times,serif" font-size="14.00">level: 1</text>
<polyline fill="none" stroke="black" points="30.5,-129.5 213.5,-129.5 "/>
<text text-anchor="middle" x="122" y="-114.3" font-family="Times,serif" font-size="14.00">prev: 0x503000000250</text>
</g>
<!-- scope1&#45;&gt;scope2 -->
<g id="edge2" class="edge">
<title>scope1:prev_port&#45;&gt;scope2</title>
<path fill="none" stroke="green" d="M122,-212C122,-203.62 122,-194.67 122,-186.08"/>
<polygon fill="green" stroke="green" points="125.5,-185.82 122,-175.82 118.5,-185.82 125.5,-185.82"/>
</g>
<!-- scope2&#45;&gt;scope0 -->
<g id="edge3" class="edge">
<title>scope2:prev_port&#45;&gt;scope0</title>
<path fill="none" stroke="green" d="M215,-118C232.48,-118 234.85,-99.28 232.56,-79.72"/>
<polygon fill="green" stroke="green" points="236.02,-79.18 231.06,-69.83 229.1,-80.24 236.02,-79.18"/>
</g>
<!-- scope4 -->
<g id="node7" class="node">
<title>scope4</title>
<polygon fill="lightblue" stroke="black" points="256.5,-106.5 256.5,-175.5 439.5,-175.5 439.5,-106.5 256.5,-106.5"/>
<text text-anchor="middle" x="348" y="-160.3" font-family="Times,serif" font-size="14.00">0x5030000004c0</text>
<polyline fill="none" stroke="black" points="256.5,-152.5 439.5,-152.5 "/>
<text text-anchor="middle" x="348" y="-137.3" font-family="Times,serif" font-size="14.00">level: 1</text>
<polyline fill="none" stroke="black" points="256.5,-129.5 439.5,-129.5 "/>
<text text-anchor="middle" x="348" y="-114.3" font-family="Times,serif" font-size="14.00">prev: 0x503000000250</text>
</g>
<!-- scope3&#45;&gt;scope4 -->
<g id="edge4" class="edge">
<title>scope3:prev_port&#45;&gt;scope4</title>
<path fill="none" stroke="green" d="M373,-212C373,-203.09 371.18,-193.9 368.53,-185.22"/>
<polygon fill="green" stroke="green" points="371.81,-183.99 365.23,-175.69 365.19,-186.28 371.81,-183.99"/>
</g>
<!-- scope4&#45;&gt;scope0 -->
<g id="edge5" class="edge">
<title>scope4:prev_port&#45;&gt;scope0</title>
<path fill="none" stroke="green" d="M255,-118C236.23,-118 227.86,-99.28 224.24,-79.72"/>
<polygon fill="green" stroke="green" points="227.7,-79.21 222.79,-69.83 220.78,-80.23 227.7,-79.21"/>
</g>
</g>
</svg>
