<?xml version="1.0" encoding="UTF-8" standalone="no"?>
<!DOCTYPE svg PUBLIC "-//W3C//DTD SVG 1.1//EN"
 "http://www.w3.org/Graphics/SVG/1.1/DTD/svg11.dtd">
<!-- Generated by graphviz version 2.43.0 (0)
 -->
<!-- Title: SymbolTable Pages: 1 -->
<svg width="524pt" height="257pt"
 viewBox="0.00 0.00 523.50 257.00" xmlns="http://www.w3.org/2000/svg" xmlns:xlink="http://www.w3.org/1999/xlink">
<g id="graph0" class="graph" transform="scale(1 1) rotate(0) translate(4 253)">
<title>SymbolTable</title>
<polygon fill="white" stroke="transparent" points="-4,4 -4,-253 519.5,-253 519.5,4 -4,4"/>
<!-- stack -->
<g id="node1" class="node">
<title>stack</title>
<polygon fill="lightpink" stroke="black" points="0,-212.5 0,-248.5 360,-248.5 360,-212.5 0,-212.5"/>
<text text-anchor="middle" x="22.5" y="-226.8" font-family="Times,serif" font-size="14.00">0</text>
<polyline fill="none" stroke="black" points="45,-212.5 45,-248.5 "/>
<text text-anchor="middle" x="67.5" y="-226.8" font-family="Times,serif" font-size="14.00">1</text>
<polyline fill="none" stroke="black" points="90,-212.5 90,-248.5 "/>
<text text-anchor="middle" x="112.5" y="-226.8" font-family="Times,serif" font-size="14.00">2</text>
<polyline fill="none" stroke="black" points="135,-212.5 135,-248.5 "/>
<text text-anchor="middle" x="157.5" y="-226.8" font-family="Times,serif" font-size="14.00">3</text>
<polyline fill="none" stroke="black" points="180,-212.5 180,-248.5 "/>
<text text-anchor="middle" x="202.5" y="-226.8" font-family="Times,serif" font-size="14.00">4</text>
<polyline fill="none" stroke="black" points="225,-212.5 225,-248.5 "/>
<text text-anchor="middle" x="247.5" y="-226.8" font-family="Times,serif" font-size="14.00">5</text>
<polyline fill="none" stroke="black" points="270,-212.5 270,-248.5 "/>
<text text-anchor="middle" x="292.5" y="-226.8" font-family="Times,serif" font-size="14.00">6</text>
<polyline fill="none" stroke="black" points="315,-212.5 315,-248.5 "/>
<text text-anchor="middle" x="337.5" y="-226.8" font-family="Times,serif" font-size="14.00">7</text>
</g>
<!-- current_scope -->
<g id="node2" class="node">
<title>current_scope</title>
<polygon fill="orange" stroke="transparent" points="470,-248.5 378,-248.5 378,-212.5 470,-212.5 470,-248.5"/>
<text text-anchor="middle" x="424" y="-226.8" font-family="Times,serif" font-size="14.00">CURRENT</text>
</g>
<!-- scope1 -->
<g id="node4" class="node">
<title>scope1</title>
<polygon fill="lightblue" stroke="black" points="332.5,-106.5 332.5,-175.5 515.5,-175.5 515.5,-106.5 332.5,-106.5"/>
<text text-anchor="middle" x="424" y="-160.3" font-family="Times,serif" font-size="14.00">0x503000000220</text>
<polyline fill="none" stroke="black" points="332.5,-152.5 515.5,-152.5 "/>
<text text-anchor="middle" x="424" y="-137.3" font-family="Times,serif" font-size="14.00">level: 1</text>
<polyline fill="none" stroke="black" points="332.5,-129.5 515.5,-129.5 "/>
<text text-anchor="middle" x="424" y="-114.3" font-family="Times,serif" font-size="14.00">prev: 0x503000000190</text>
</g>
<!-- current_scope&#45;&gt;scope1 -->
<g id="edge2" class="edge">
<title>current_scope&#45;&gt;scope1</title>
<path fill="none" stroke="brown" d="M424,-212.21C424,-204.53 424,-195.11 424,-185.69"/>
<polygon fill="brown" stroke="brown" points="427.5,-185.55 424,-175.55 420.5,-185.55 427.5,-185.55"/>
</g>
<!-- scope0 -->
<g id="node3" class="node">
<title>scope0</title>
<polygon fill="lightblue" stroke="black" points="353,-0.5 353,-69.5 495,-69.5 495,-0.5 353,-0.5"/>
<text text-anchor="middle" x="424" y="-54.3" font-family="Times,serif" font-size="14.00">0x503000000190</text>
<polyline fill="none" stroke="black" points="353,-46.5 495,-46.5 "/>
<text text-anchor="middle" x="424" y="-31.3" font-family="Times,serif" font-size="14.00">level: 0</text>
<polyline fill="none" stroke="black" points="353,-23.5 495,-23.5 "/>
<text text-anchor="middle" x="424" y="-8.3" font-family="Times,serif" font-size="14.00">prev: (nil)</text>
</g>
<!-- scope1&#45;&gt;scope0 -->
<g id="edge1" class="edge">
<title>scope1:prev_port&#45;&gt;scope0</title>
<path fill="none" stroke="green" d="M424,-106C424,-97.62 424,-88.67 424,-80.08"/>
<polygon fill="green" stroke="green" points="427.5,-79.82 424,-69.82 420.5,-79.82 427.5,-79.82"/>
</g>
</g>
</svg>
